/* XPM */
static char *result[] = {
/* columns rows colors chars-per-pixel */
"50 50 168 2 ",
"   c #7E7E7E",
".  c #727272",
"X  c #4D4E4D",
"o  c #505050",
"O  c #515051",
"+  c #4C4B4C",
"@  c #6A6A6A",
"#  c #767676",
"$  c gray46",
"%  c #747474",
"&  c #868686",
"*  c gray53",
"=  c #888888",
"-  c #8E8E8E",
";  c #414141",
":  c #222222",
">  c gray15",
",  c #282828",
"<  c gray17",
"1  c #2A2A2A",
"2  c gray19",
"3  c #3A3A3A",
"4  c gray23",
"5  c #3C3C3C",
"6  c #595859",
"7  c #373737",
"8  c #818181",
"9  c gray55",
"0  c #797979",
"q  c gray45",
"w  c gray49",
"e  c #4E4E4E",
"r  c gray33",
"t  c #646464",
"y  c gray44",
"u  c gray50",
"i  c #8B8B8B",
"p  c #1D131E",
"a  c #323232",
"s  c #2D2D2D",
"d  c #2C2C2C",
"f  c #3E3E3E",
"g  c #474847",
"h  c #575657",
"j  c gray27",
"k  c gray39",
"l  c #6F6F6F",
"z  c gray54",
"x  c #808080",
"c  c #747374",
"v  c #4C4C4C",
"b  c #4E4F4E",
"n  c gray35",
"m  c #B19998",
"M  c #C4B59F",
"N  c #535353",
"B  c #545354",
"V  c #555555",
"C  c gray22",
"Z  c #494949",
"A  c #898989",
"S  c gray31",
"D  c gray30",
"F  c #E5E6C7",
"G  c #252525",
"H  c gray26",
"J  c gray32",
"K  c gray16",
"L  c #313131",
"P  c #525152",
"I  c #565556",
"U  c gray48",
"Y  c #777777",
"T  c gray29",
"R  c #565656",
"E  c #5F5F5F",
"W  c #717171",
"Q  c #7B7B7B",
"!  c gray38",
"~  c #484848",
"^  c #464646",
"/  c gray37",
"(  c #5D5D5D",
")  c white",
"_  c gray47",
"`  c #1D1D1D",
"'  c #393939",
"]  c gray21",
"[  c #686868",
"{  c gray24",
"}  c #353535",
"|  c #424142",
" . c #7E7F7E",
".. c #7A7B7A",
"X. c #7B7A7B",
"o. c #7C7C7C",
"O. c #343434",
"+. c #232323",
"@. c #4C4D4C",
"#. c #4E4C4E",
"$. c #4D4C4D",
"%. c #4E4D4E",
"&. c gray14",
"*. c #272727",
"=. c gray20",
"-. c #3F3F3F",
";. c gray25",
":. c gray28",
">. c #6D6D6D",
",. c #2F2F2F",
"<. c #4B4B4B",
"1. c gray13",
"2. c gray40",
"3. c #726B7E",
"4. c #656565",
"5. c #848484",
"6. c #676767",
"7. c gray57",
"8. c #8D8D8D",
"9. c #4D4A5D",
"0. c #838383",
"q. c #616061",
"w. c #3D3748",
"e. c #4F4E4F",
"r. c DimGray",
"t. c gray43",
"y. c #515151",
"u. c gray52",
"i. c gray12",
"p. c #1E1E1E",
"a. c #202020",
"s. c gray59",
"d. c #909090",
"f. c #535253",
"g. c #444444",
"h. c #4B4A4B",
"j. c #2E2533",
"k. c #555455",
"l. c #484648",
"z. c #585858",
"x. c #6C6C6C",
"c. c gray51",
"v. c #1C121D",
"b. c gray56",
"n. c #474647",
"m. c #504F50",
"M. c #5F5E5F",
"N. c #19101A",
"B. c #9A8584",
"V. c gray58",
"C. c #626262",
"Z. c #434343",
"A. c #939393",
"S. c gray34",
"D. c gray18",
"F. c gray42",
"G. c gray36",
"H. c #494849",
"J. c #595A59",
"K. c #505150",
"L. c #504E50",
"P. c #666566",
"I. c #5A5A5A",
"U. c #6A696A",
"Y. c gray11",
"T. c #4C4A4C",
"R. c #606060",
"E. c #484748",
/* pixels */
"  . X o O + @ # $ $ $ % % % & * = * * - ; : > , < 1 2 3 4 3 5 2 < < 1 1 , 4 6 , 7 o 8 9 = 0 q % % q ",
"w q + e r t y q # # # q q %   u u w u i p p p p p p p p p p a s < d < < f g h 1 a j k l z 8 x   u   ",
"u c v b n 0 # $ # # # $ $ $ % $ % . p p m m M M M M M M m m p p d < < d N B V 1 2 C Z V 9 * A * = & ",
"Z S D y % $ # # # # # # # $ # q q p m M M F F F F F F F F M M m p G H J o f 1 K L 3 e P o S I U 0 Y ",
"T R E W % $ # # # # # # # $ w Q p m M F F F F F F F F F F F F M m p R ! k ~ K K L 3 ^ Z o e N / ( / ",
"~ E # W q q q q q q q q q . & 9 p m F F F F ) ) ) ) ) ) F F F F M p 0 _ U N ` K L 4 ' 5 V r o ] 7 7 ",
"~ [ A & & & & & & & & & & & 9 p m M F F F ) ) ) ) ) ) ) ) F F F M m p # # % Y < d d ' 5 { 5 { 4 } < ",
"| /  .Q Q ..Q Q X.Q o.Q Q U w p m M F F ) ) ) ) ) ) ) ) ) ) F F M m p # % $   K < 1 O.C ] 7 7 C 2 1 ",
"+.' O @.D e #.$.$.%.D e %.e S p m M F F ) ) ) ) ) ) ) ) ) ) F F M m p $ % %   +.> s K K 1 1 1 &., s ",
"*.=.; -.;.f D o J :.;.;.;.f ;.p m M F F ) ) ) ) ) ) ) ) ) ) F F M m p 8 q q _ [ N > K K 1 K s >.~ *.",
", ,.3 C 7 ] <.S e ; C 3 ' ' 7 p m M M F F ) ) ) ) ) ) ) ) F F M M m p * Y % % U t s a a =.a C   N ,.",
": *.< 1 2 { 4 7 , *.1 &.+.: 1.p m M m F F F ) ) ) ) ) ) F F F m M m p - = 8 q # Y w   w w w Q # 0 U ",
"E <.G 1 d a 2 L 1 < K @ t 2.n p 3.M m m F ) ) F F F F ) ) F m m M 3.p 4.A 5.u $ $ $ $ # # # $ % q q ",
"5.6.*.1 < < 1 s d d K 7.8.- 0 p 9.m m 9.) ) ) ) F F ) ) ) ) 9.m m 9.p o * * A % $ $ # $ $ $ # # q q ",
"  0.0 } 1 < , L   q.o 7.i * $ % p m w.) ) F F ) ) ) ) F F ) ) w.m p 4 ' e.r.7.9 = A # % $ $ $ $ % . ",
"w _ 4.a 1 K ^ V o.V 3 n t.z w 0 p 9.w.) p p 3.F F F F 3.p p ) w.9.p C 4 ^ y.4./ t.i   o.w w w w o.o.",
"u.Y S 2 K i.2.o.U ; p.a.r s.i 8 . p m F p 9.9.9.F F 9.9.9.p F m p 1 } 5 C ' ] =.r s.7.7.7.8.- - d.7.",
"7 4 5 *.C U $ # # # 0 > > *.* i * & p m m 3.9.M p p M 9.3.m m p *., , K , 1 s d K K 7 C ] <.O f.H ' ",
"a } =.;.S U $ $ $ Y # -.7 *.p p p p p p 3.m F ) 9.9.) F m 3.p p p p p p g.] < d < K O.] } ; g.h.H ' ",
"a.&.i.y o.$ # $ # # $ x V p ) F m F 3.p 3.m F F ) F F F m 3.p 3.F m F ) p R a.&.G &., < 1 *., O.a =.",
"/ [ 6.% $ $ $ # # # # $ p m m 3.3.m 3.j.9.9.9.) 9.) 9.F 9.9.j.3.m 3.3.m m p r.[ >.o.j O., H S w U Y ",
"y U _ _ _ $ # # # # # q p 9.) ) j.j.j.3.p p p p p p p p p p 3.j.j.j.) ) 9.p $ #   d.T } *.^ k.8 u.z ",
"u 8.z A 0.W . . . q $ W p j.9.m ) ) F ) ) m m 3.3.3.3.m m ) ) F ) ) m 9.j.p q . U d.~ 7 *.l.o ~ t.8.",
"z.x.0 & & 8 c.c.c.0 q c.p 3.p p p j.j.9.9.F F 3.) F 3.F F 9.9.j.j.p p v.3.p 0.0.u.b.Z ] *.n.J m.n M.",
"n.( q c.5.* & * A o.# = N.m B.p p 3.9.F m p p p M m p p p m F 9.3.p p B.m N.z c.c.* ~ ] > g.S O O %.",
"h.P e S I U $ _ A i 9 b.p M 9.j.p 3.m 9.p 3.) p F M p ) 3.p 9.m 3.p j.9.M p V.&.1 ' 3 3 K *.K V f.J ",
"h.r y.y.r k C.t x.C.( E p F 3.9.p 9.9.m p ) m p M m p m ) p m 9.9.p 9.3.F p l L O.4 } L *.:.N g.Z.j ",
"+ R J J J S y.e o ;.} a p m 9.B.p j.3.p p 3.) p F M p ) 3.p p 3.j.p B.9.m p y.5 4 5 1 +.p.! # ,.7 3 ",
"> L 3 4 4 4 4 4 5 3 ' o.p 9.m ) B.p p m 3.) F p 9.9.p F ) 3.m p p B.) m 9.p ] 3 O.i.@ Q 0 * z A.S.a.",
"*.D.] O.O.O.O.O.O.O.=.U $ p 9.m F M m F m 9.p 9.p p 9.p 9.m F m M F m 9.p f 3 g.j :.l _ % w c.z F.v ",
": > , *.> &.+.+.&.: : 0 # p p 9.m F 3.m 9.) F p m 3.p F ) 9.m 3.F m 9.p p ,.7 e G.w # $ $ q q A - 9 ",
"@ k <.e N W l l l l t.% $ # # p p p 9.w.9.9.9.p 3.9.p 9.9.9.w.9.p p p D.> ' %.. % % # # # q $ $ x & ",
"[ k m.O n U Y # Y # % q $ # # # p F p p p p p p m 3.p p p p p p F p 2 s 3 H.J.$ Y # # $ # # % . w & ",
"^ S S %.V 0 # $ # $ $ % # $ # $ p p F m w.9.p p p p p p 9.w.m F p p { -.Q 0 _ # $ % $ # # # % . w * ",
"T O %.F.W # # % # # # $ # # $ U p 3.j.j.j.M m M 9.9.M m M j.j.j.3.p D.D.$ % # # # # # # # $ $ 5.& & ",
"T K.L.W _ # # % _ # Y $ # # % U p F ) M p p j.w.3.3.w.j.p p M ) F p 1 1 % % # # # # # # $ # Y = 5.u ",
"<.P e.y % $ W # = z - W o.A 9 9 p ) M M j.p p p p p p p p j.M M ) p , d Q _ % q . . $ # # q % i r.Z ",
"<.y.e.W % q   x i W C.5.0.= 2.p p 3.3.3.p L D.^ n % $ 0 ( p 3.3.3.p p , g.! 5.u u x Y $ $ o.x i @ D ",
"e V o W % . c.z 8.P.~ b.i 9 r p m ) F 3.p K +.y.w q % # # p 3.F ) m p G : N A.8.z z Y q . 0.A 9 x.v ",
"*.*.&.y o.q * c.T m.O v v v y.p 3.) M j.p *.5.Y q # # # # p j.M ) 3.p U C O.O.p.g.A.i i i z u.~ v S ",
"K < K v z._ l [ O P P P + Z.P p M 3.p p ^ J _ q $ # # # # # p p 3.M p % C.o ' L { I.@ x.F.>.F.e.S o ",
", < , G C c.J.%.P P f.f.^ 7 y.p F p F p ! Q % q # # # # # # p F p F p # b.[ 7 5 O.+.^ e S v e y.o o ",
"1.~ Q L , s 7 { 5 5 5 { 4 3 s p M p F M p % $ q # # # # # p M F p M p % z t } { 3 3 4 -.N ; { 5 { 5 ",
"3 z.Q S g.*.a 7 7 C 5 O.} } p j.m 9.m 3.p p $ $ # # # # p p 3.m 9.m j.p i t } ] ] 7 } C ~ 3 } } } } ",
". 0 % - 0 &.1 < *.} f K 1 p j.F 9.F 9.F 3.p % % % % % % p 3.F 9.F 9.F j.p @ C 1 *.: 1 < , < 1 : : +.",
"x.$ . * % +.1 < < < d K K p m 3.M 3.M 3.3.p * * * * * * p 3.3.M 3.M 3.m p ' < 1 -._ ] > K , s t.F.U.",
"@ _ Y = % D.a L < L L 3 ' p F 9.) 9.) 9.p o.o.o.o.o.o.Q * p 9.) 9.) 9.F p a K a ^ l Z.' 3 ' f U # % ",
"r.  A = Q $.R m.+.H J o.o.  p p p p p p e.%.%.%.%.%.%.^ u.8.p p p p p p 5 } > z.g.Y.F.o.o.o.U Y $ q ",
"_ u.= z w T.N y.g./ t._ Y U D.s ,.} ] O.f ;.;.;.;.-.^ K.R.! C.V o -.; ; 2 D.*.R ^ : $ 0.# Y Y # _ $ ",
"W Q 0 w t.:.T Z ~ E F.r.r.F.K > K G > G ,.] =.=.=.a 4 v E.~ Z C a O.} =.*., &.T f ` x.o.[ F.@ r.r.[ "
};
