/* XPM */
static char *result[] = {
/* columns rows colors chars-per-pixel */
"50 50 166 2 ",
"   c #7E7E7E",
".  c #727272",
"X  c #4D4E4D",
"o  c #505050",
"O  c #515051",
"+  c #4C4B4C",
"@  c #6A6A6A",
"#  c #767676",
"$  c gray46",
"%  c #747474",
"&  c #868686",
"*  c gray53",
"=  c #888888",
"-  c #8E8E8E",
";  c #414141",
":  c #222222",
">  c gray15",
",  c #282828",
"<  c gray17",
"1  c #2A2A2A",
"2  c gray19",
"3  c #3A3A3A",
"4  c gray23",
"5  c #3C3C3C",
"6  c #595859",
"7  c #373737",
"8  c #818181",
"9  c gray55",
"0  c #797979",
"q  c gray45",
"w  c gray49",
"e  c #4E4E4E",
"r  c gray33",
"t  c #646464",
"y  c gray44",
"u  c gray50",
"i  c #8B8B8B",
"p  c #1D131E",
"a  c #323232",
"s  c #2D2D2D",
"d  c #2C2C2C",
"f  c #3E3E3E",
"g  c #474847",
"h  c #575657",
"j  c gray27",
"k  c gray39",
"l  c #6F6F6F",
"z  c gray54",
"x  c #808080",
"c  c #747374",
"v  c #4C4C4C",
"b  c #4E4F4E",
"n  c gray35",
"m  c #B19998",
"M  c #C4B59F",
"N  c #535353",
"B  c #545354",
"V  c #555555",
"C  c gray22",
"Z  c #494949",
"A  c #898989",
"S  c gray31",
"D  c gray30",
"F  c #E5E6C7",
"G  c #252525",
"H  c gray26",
"J  c gray32",
"K  c gray16",
"L  c #313131",
"P  c #525152",
"I  c #565556",
"U  c gray48",
"Y  c #777777",
"T  c gray29",
"R  c #565656",
"E  c #5F5F5F",
"W  c #717171",
"Q  c #7B7B7B",
"!  c gray38",
"~  c #484848",
"^  c #464646",
"/  c gray37",
"(  c #5D5D5D",
")  c white",
"_  c gray47",
"`  c #1D1D1D",
"'  c #393939",
"]  c gray21",
"[  c #686868",
"{  c gray24",
"}  c #353535",
"|  c #424142",
" . c #7E7F7E",
".. c #7A7B7A",
"X. c #7B7A7B",
"o. c #7C7C7C",
"O. c #343434",
"+. c #232323",
"@. c #4C4D4C",
"#. c #4D4C4D",
"$. c #4E4D4E",
"%. c gray14",
"&. c #272727",
"*. c gray20",
"=. c gray28",
"-. c gray25",
";. c #6D6D6D",
":. c #2F2F2F",
">. c #3D3748",
",. c #726B7E",
"<. c gray13",
"1. c #4D4A5D",
"2. c gray40",
"3. c #656565",
"4. c #848484",
"5. c gray57",
"6. c #8D8D8D",
"7. c #838383",
"8. c #616061",
"9. c #4F4E4F",
"0. c DimGray",
"q. c gray43",
"w. c #515151",
"e. c gray52",
"r. c #1E1E1E",
"t. c #202020",
"y. c gray59",
"u. c #909090",
"i. c #4B4A4B",
"p. c gray12",
"a. c #676767",
"s. c #2E2533",
"d. c #555455",
"f. c #484648",
"g. c #585858",
"h. c #6C6C6C",
"j. c gray51",
"k. c #1C121D",
"l. c gray56",
"z. c #474647",
"x. c #504F50",
"c. c #5F5E5F",
"v. c #444444",
"b. c gray58",
"n. c #535253",
"m. c #626262",
"M. c #434343",
"N. c #4B4B4B",
"B. c #939393",
"V. c gray34",
"C. c gray18",
"Z. c #4F504F",
"A. c gray42",
"S. c gray36",
"D. c #494849",
"F. c #595A59",
"G. c #3F3F3F",
"H. c #505150",
"J. c #504E50",
"K. c #666566",
"L. c #5A5A5A",
"P. c #6A696A",
"I. c gray11",
"U. c #4C4A4C",
"Y. c #606060",
"T. c #484748",
/* pixels */
"  . X o O + @ # $ $ $ % % % & * = * * - ; : > , < 1 2 3 4 3 5 2 < < 1 1 , 4 6 , 7 o 8 9 = 0 q % % q ",
"w q + e r t y q # # # q q %   u u w u i p p p p p p p p p p a s < d < < f g h 1 a j k l z 8 x   u   ",
"u c v b n 0 # $ # # # $ $ $ % $ % . p p m m M M M M M M m m p p d < < d N B V 1 2 C Z V 9 * A * = & ",
"Z S D y % $ # # # # # # # $ # q q p m M M F F F F F F F F M M m p G H J o f 1 K L 3 e P o S I U 0 Y ",
"T R E W % $ # # # # # # # $ w Q p m M F F F F F F F F F F F F M m p R ! k ~ K K L 3 ^ Z o e N / ( / ",
"~ E # W q q q q q q q q q . & 9 p m F F F F ) ) ) ) ) ) F F F F M p 0 _ U N ` K L 4 ' 5 V r o ] 7 7 ",
"~ [ A & & & & & & & & & & & 9 p m M F F F ) ) ) ) ) ) ) ) F F F M m p # # % Y < d d ' 5 { 5 { 4 } < ",
"| /  .Q Q ..Q Q X.Q o.Q Q U w p m M F F ) ) ) ) ) ) ) ) ) ) F F M m p # % $   K < 1 O.C ] 7 7 C 2 1 ",
"+.' O @.p p p #.#.$.D e $.e S p m M F F ) ) ) ) ) ) ) ) ) ) F F M m p $ % %   +.> s K p p p 1 %., s ",
"&.*.; p p F p o J =.-.-.-.f -.p m M F F ) ) ) ) ) ) ) ) ) ) F F M m p 8 q q _ [ N > K p F p p ;.~ &.",
", :.p m >.) p S e ; C 3 ' ' 7 p m M M F F ) ) ) ) ) ) ) ) F F M M m p * Y % % U t s a p ) >.m p N :.",
": &.p ,.>.M p 7 , &.1 %.+.: <.p m M m F F F ) ) ) ) ) ) F F F m M m p - = 8 q # Y w   p M >.,.p 0 U ",
"E p m >.1.M p L 1 < K @ t 2.n p ,.M m m F ) ) F F F F ) ) F m m M ,.p 3.A 4.u $ $ $ $ p M 1.>.m p q ",
"4.p ,.m >.M 1.p d d K 5.6.- 0 p 1.m m 1.) ) ) ) F F ) ) ) ) 1.m m 1.p o * * A % $ $ p 1.M >.m ,.p q ",
"  7.p p ,.M ,.p   8.o 5.i * $ % p m >.) ) F F ) ) ) ) F F ) ) >.m p 4 ' 9.0.5.9 = A p ,.M ,.p p % . ",
"w _ 3.p ,.m M p o.V 3 n q.z w 0 p 1.>.) p p ,.F F F F ,.p p ) >.1.p C 4 ^ w.3./ q.i p M m ,.p w o.o.",
"e.Y p p ,.m ,.F p p r.t.r y.i 8 . p m F p 1.1.1.F F 1.1.1.p F m p 1 } 5 C ' ] *.p p F ,.m ,.p p u.5.",
"7 4 p F ) M M ,.F ,.p p > &.* i * & p m m ,.1.M p p M 1.,.m m p &., , K , 1 p p ,.F ,.M M ) F p H ' ",
"a } *.p p ,.1.M 1.M m ,.p p p p p p p p ,.m F ) 1.1.) F m ,.p p p p p p p p ,.m M 1.M 1.,.p p i.H ' ",
"t.%.p.y o.p p 1.M >.>.F m p ) F m F ,.p ,.m F F ) F F F m ,.p ,.F m F ) p m F >.>.M 1.p p &., O.a *.",
"/ [ a.% $ $ $ p p 1.m 1.p m m ,.,.m ,.s.1.1.1.) 1.) 1.F 1.1.s.,.m ,.,.m m p 1.m 1.p p O., H S w U Y ",
"y U _ _ _ $ # # # p p m p 1.) ) s.s.s.,.p p p p p p p p p p ,.s.s.s.) ) 1.p m p p u.T } &.^ d.8 e.z ",
"u 6.z A 7.W . . . q $ p p s.1.m ) ) F ) ) m m ,.,.,.,.m m ) ) F ) ) m 1.s.p p . U u.~ 7 &.f.o ~ q.6.",
"g.h.0 & & 8 j.j.j.0 q j.p s.p p p s.s.1.1.F F ,.) F ,.F F 1.1.s.s.p p k.s.p 7.7.e.l.Z ] &.z.J x.n c.",
"z.( q j.4.* & * A o.# = & p 1.1.p ,.1.F m ,.1.M F M M 1.,.m F 1.,.p 1.1.p Q z j.j.* ~ ] > v.S O O $.",
"i.P e S I U $ _ A i 9 l.. e p p p ,.m 1.) ) F 1.) F 1.F ) ) 1.m ,.p p p 9 z b.%.1 ' 3 3 K &.K V n.J ",
"i.r w.w.r k m.t h.m.( E w.H 4 p p 1.1.F 1.,.1.M F M M 1.,.1.F 1.1.p p & [ 0.l L O.4 } L &.=.N v.M.j ",
"+ R J J J S w.e o -.} a *.O.4 *.p s.m 1.) ) F 1.) F 1.F ) ) 1.m s.p i z D #.w.5 4 5 1 +.r.! # :.7 3 ",
"> L 3 4 4 4 4 4 5 3 ' o.U U J o p p s.m 1.,.1.m 1.1.m 1.,.1.m s.p p N.D N T ] 3 O.p.@ Q 0 * z B.V.t.",
"&.C.] O.O.O.O.O.O.O.*.U $ Y / / E p ,.m F F m 1.p p 1.m F F m ,.p O P Z.; f 3 v.j =.l _ % w j.z A.v ",
": > , &.> %.+.+.%.: : 0 # # Y Y p 1.s.1.1.,.1.p m ,.p 1.,.1.1.s.1.p d.N &.:.7 e S.w # $ $ q q A - 9 ",
"@ k N.e N W l l l l q.% $ # # # p M m s.m m ,.p ,.1.p ,.m m s.m M p O.C.> ' $.. % % # # # q $ $ x & ",
"[ k x.O n U Y # Y # % q $ # # # p F m s.s.p p p m ,.p p p s.s.m F p 2 s 3 D.F.$ Y # # $ # # % . w & ",
"^ S S $.V 0 # $ # $ $ % # $ # $ p p F m >.1.p p p p p p 1.>.m F p p { G.Q 0 _ # $ % $ # # # % . w * ",
"T O $.A.W # # % # # # $ # # $ U p ,.s.s.s.M m M 1.1.M m M s.s.s.,.p C.C.$ % # # # # # # # $ $ 4.& & ",
"T H.J.W _ # # % _ # Y $ # # % U p F ) M p p s.>.,.,.>.s.p p M ) F p 1 1 % % # # # # # # $ # Y = 4.u ",
"N.P 9.y % $ W # = z - W o.A 9 9 p ) M M s.p p p p p p p p s.M M ) p , d Q _ % q . . $ # # q % i 0.Z ",
"N.w.9.W % q   x i W m.4.7.= 2.p p ,.,.,.p L C.^ n % $ 0 ( p ,.,.,.p p , v.! 4.u u x Y $ $ o.x i @ D ",
"e V o W % . j.z 6.K.~ l.i 9 r p m ) F ,.p K +.w.w q % # # p ,.F ) m p G : N B.6.z z Y q . 7.A 9 h.v ",
"&.&.%.y o.q * j.T x.O v v v w.p ,.) M s.p &.4.Y q # # # # p s.M ) ,.p U C O.O.r.v.B.i i i z e.~ v S ",
"K < K v g._ l [ O P P P + M.P p M ,.p p ^ J _ q $ # # # # # p p ,.M p % m.o ' L { L.@ h.A.;.A.9.S o ",
", < , G C j.F.$.P P n.n.^ 7 w.p F p F p ! Q % q # # # # # # p F p F p # l.[ 7 5 O.+.^ e S v e w.o o ",
"<.~ Q L , s 7 { 5 5 5 { 4 3 s p M p F M p % $ q # # # # # p M F p M p % z t } { 3 3 4 G.N ; { 5 { 5 ",
"3 g.Q S v.&.a 7 7 C 5 O.} } p s.m 1.m ,.p p $ $ # # # # p p ,.m 1.m s.p i t } ] ] 7 } C ~ 3 } } } } ",
". 0 % - 0 %.1 < &.} f K 1 p s.F 1.F 1.F ,.p % % % % % % p ,.F 1.F 1.F s.p @ C 1 &.: 1 < , < 1 : : +.",
"h.$ . * % +.1 < < < d K K p m ,.M ,.M ,.,.p * * * * * * p ,.,.M ,.M ,.m p ' < 1 G._ ] > K , s q.A.P.",
"@ _ Y = % C.a L < L L 3 ' p F 1.) 1.) 1.p o.o.o.o.o.o.Q * p 1.) 1.) 1.F p a K a ^ l M.' 3 ' f U # % ",
"0.  A = Q #.R x.+.H J o.o.  p p p p p p 9.$.$.$.$.$.$.^ e.6.p p p p p p 5 } > g.v.I.A.o.o.o.U Y $ q ",
"_ e.= z w U.N w.v./ q._ Y U C.s :.} ] O.f -.-.-.-.G.^ H.Y.! m.V o G.; ; 2 C.&.R ^ : $ 7.# Y Y # _ $ ",
"W Q 0 w q.=.T Z ~ E A.0.0.A.K > K G > G :.] *.*.*.a 4 v T.~ Z C a O.} *.&., %.T f ` h.o.[ A.@ 0.0.[ "
};
