/* XPM */
static char *_86964a9ce1d42efa3bd4c6f43603cddqVc6GAPei3ziRevu[] = {
/* columns rows colors chars-per-pixel */
"50 50 113 2 ",
"   c #1E1E1E",
".  c #252525",
"X  c #2B2B2B",
"o  c #393426",
"O  c #343434",
"+  c #3B3B3B",
"@  c #423B25",
"#  c #453E28",
"$  c #4A432D",
"%  c #5F5126",
"&  c #4B4433",
"*  c #4F4833",
"=  c #524A34",
"-  c #5B4F39",
";  c #57503B",
":  c #5A533D",
">  c #615327",
",  c #64562B",
"<  c #67592E",
"1  c #705E24",
"2  c #6B5C31",
"3  c #786322",
"4  c #786735",
"5  c #77693E",
"6  c #434343",
"7  c #474847",
"8  c #484748",
"9  c #4C4C4C",
"0  c #4F504F",
"q  c #545041",
"w  c #5E5641",
"e  c #5F5843",
"r  c #504F50",
"t  c #525252",
"y  c #5C5C5C",
"u  c #615944",
"i  c #67604A",
"p  c #7C6A42",
"a  c #7F7146",
"s  c #65635C",
"d  c #776E51",
"f  c #786A54",
"g  c #766F59",
"h  c #77705A",
"j  c #79725D",
"k  c #646364",
"l  c #6B6B6B",
"z  c #7B7563",
"x  c #76746D",
"c  c #757575",
"v  c #7B7B7B",
"b  c #846D2C",
"n  c #826C3A",
"m  c #87743B",
"M  c #917735",
"N  c #907739",
"B  c #817347",
"V  c #977F42",
"C  c #907B48",
"Z  c #857752",
"A  c #817A64",
"S  c #837E6B",
"D  c #847F70",
"F  c #9D813F",
"G  c #9E8447",
"H  c #A2864B",
"J  c #A0884F",
"K  c #A28C55",
"L  c #A3905D",
"P  c #9C8D77",
"I  c #9F917A",
"U  c #A5976C",
"Y  c #B09C72",
"T  c #BEA269",
"R  c #B2A176",
"E  c #BDA779",
"W  c #C29E5C",
"Q  c #C8AD7B",
"!  c #D3B47D",
"~  c #E7BC79",
"^  c #858585",
"/  c #8B8B8B",
"(  c #929292",
")  c #BEAB80",
"_  c #CBB58B",
"`  c #C2B696",
"'  c #CDBC99",
"]  c #D5BE93",
"[  c #D8C39C",
"{  c #E0C18E",
"}  c #EBC790",
"|  c #EDCB97",
" . c #E3C99E",
".. c #D0C4A7",
"X. c #DAC6A3",
"o. c #DBCAAA",
"O. c #D2CBB5",
"+. c #DCCEB1",
"@. c #EFD2A6",
"#. c #E6D0AE",
"$. c #F0D4AB",
"%. c #F3DAB7",
"&. c #F4DEBF",
"*. c #DFD5C0",
"=. c #EBDFCA",
"-. c #F5E1C5",
";. c #F7E9D2",
":. c #F7E9D4",
">. c #F8E9D4",
",. c #FBF4EA",
"<. c #FDF8F1",
"1. c #FEFBF8",
"2. c white",
/* pixels */
"v c 9 t t 9 l c c c c c c c / ^ / / / / 6 . . X X X O + + O + O X X X X X + y . O t ^ / / v c c c c ",
"v c 9 9 t k l c c c c c c c v v v v v / k y y 6 . X O + O O O X X X X X + 7 t X O 6 k l / v v v ^ v ",
"v c 9 9 y v c c c v c c c c c c c c v ^ / / ( y . X O + X X X X X X X X t t y X X + 7 t / / / / / / ",
"9 9 9 c c c c c c c v c c c c c c c c c ^ ^ / y . X X X X X X . X . 6 0 t + X X O + r t 0 r t v c c ",
"9 t y c c c c c c c c c c c v v v v v v S z A u o # $ = + + + 6 7 7 t k k 8 X . O + 8 7 t 9 t y y y ",
"7 k c c c c c c c c c c c c / / ( ( ( ( B 3 3 3 3 3 3 3 t t t l c v v v c t   X X + + + y t 0 O + O ",
"7 l / ^ ^ ^ ^ ^ ^ ^ ^ ^ ^ ^ / l X = , , J W _ ..O._ Q W 2 2 2 z v c c c v c v X X X + + + + 6 + O X ",
"6 y v v v v v v v v v v v v v s @ n G K ! } >.<.2.>.-.@.K G G Z P c c c c c v X X X O + O O O + X X ",
". + 9 9 9 0 9 9 9 9 9 9 9 9 9 ; 3 W } &.&.&.2.2.2.2.2.2.&.$.~ F a c c c c c v . . X . X X X X . X X ",
". O 6 + + 6 9 t t 9 + 6 6 6 6 * 3 Q &.,.,.,.2.2.2.2.2.2.,.:.@.J , / ^ ^ l c c l t . X X X X X l 7 X ",
"X X + + O O 9 9 9 6 + + + O O * 3 _ >.2.2.2.2.2.2.2.2.2.2.,.&.K > / ^ / c c c c l X O O O O + v t X ",
". . X X O + + O . . X . . . 3 K &.&.:.2.2.2.2.2.2.2.2.2.&.&.&.&._ 3 h / / ^ c c v v v v v v v c v v ",
"y 9 . X X O O O X X X l k k 3 K &.&.X.U +.:.2.2.2.2.<.;.K E -.&._ 3 u k / ^ v c c c c c c c c c c c ",
"^ l . X X X X X X X X ( / / 3 K &.&._ 3 _ &.2.2.2.2.,.&.3 K &.&._ 3 e t ^ / / c c c c c c c c v c c ",
"v ^ c O X X X O ^ k 9 / / ^ 3 K -.K K &.K 3 &.&.&.&._ 3 &._ 3 _ _ 3 & + 9 l ( / ^ / c c c c c c c c ",
"v c l O X X 6 t c y + y c / 3 K &.K L :.L 3 &.&.&.&._ 3 ;.' 3 _ ` 3 & + 7 r k k l / ^ v ^ v v v v v ",
"^ c 0 O X   k v v 6     y ( 3 K &.K U 2.U 1 %.&.&.&._ 3 2.O.3 _ _ 3 $ + O + + O t ( ( ( ( / ( / ( ( ",
"+ + + . + v c c c c v . . . W ! &.] ) U _ _ ,.,.,.,.=._ U R _ #. .W ; X X X X X X X O + O 0 r t 6 + ",
"O O O 6 0 v c c c c c 6 O X ~ | :.;.o.K o.>.O.O.O.O.+.>.K ) >.>.%.~ f 6 6 O X X X X O O O 6 6 9 6 O ",
"  .   l v c v c c c c v y   ~ @.2.2.,.-.,.2.3 3 3 3 U 2.-.>.2.2.;.~ I v v t . . . . X X X . . O O O ",
"y k k c c c c c v c c c l l ~ @.2.2.1.,.` U 3 3 3 3 m U ,.,.2.2.;.~ P c c l l l l v 7 O . 6 0 v v c ",
"c v c v c c c c c c c c v v ~ @.2.2.2.2.U 3 3 3 3 3 3 3 2.2.2.2.;.~ P c c c c c P ( 8 O . 7 t ^ ^ / ",
"^ / / / ^ c c c c c c c c / 3 U 2.2.2.2.U 3 3 3 3 3 3 3 2.2.2.2.O.3 l c c c c l c ( 7 + X 8 r 7 c / ",
"y l v ^ ^ ^ v v ^ c c ^ ^ / 3 U 2.2.2.2.U 3 K H K K V 3 2.2.2.2.O.3 h c c v ^ v ^ / 8 O . 8 t r y y ",
"6 y c ^ ^ ^ ^ ^ / c v / ^ ^ 3 U 2.2.2.2.U 3 T T W W K 3 2.2.2.2.O.3 h c c v / P ^ / 8 O . 6 0 t 0 9 ",
"9 r 0 0 t v c v / / / / c 0 3 U 2.2.2.2.2.2.2.2.2.2.2.2.2.2.2.2.O.3 z / / / ( . . O + + X . X t t r ",
"9 t t 0 t k k k l k y k 0 6 3 U 2.2.1.,.,.,.,.,.,.,.,.,.,.<.2.2.O.3 z ^ l l l O O + O O . 8 t 8 6 6 ",
"9 t t t t 0 r 9 9 6 O X O O 3 U 2.2.,.&.&.&.&.&.-.&.&.&.&.;.2.2.O.3 S / 9 9 0 + + + X .   k c X + + ",
". O + + + + + + + + + v v v 3 K &.&.&.&.&.&.&.&.&.&.&.&.&.&.&.&._ 3 : 9 t 8 O + O   l v v ^ / ( y   ",
"X X O O O O O O O O O v c v 3 K &.&.&.&.&.&.&.&.&.&.&.&.&.&.&.&._ 3 e 0 6 6 + 6 8 8 l v c v ^ / l 9 ",
". . X . . . . . . .   v c c 3 K &.&.&.&.&.&.&.&.&.&.&.&.&.&.&.&._ 3 e y . X O 0 y v c c c c c ^ / / ",
"l k 9 r t l c l l c l c c c 3 G } $.&.&.&.&.&.&.&.&.&.&.&.&.&.&.] N = X . + 9 c c c v c c c c c ^ ^ ",
"k k 0 r y v c c c v c c c c p C W { %.&.&.&.&.&.&.&.&.&.&.%.$.[ Y p & X + 9 y c v c c v c c c c v ^ ",
"8 0 0 0 t v c c c c c c c c c g 3 W } &.&.&.&.&.&.&.&.&.&.$.~ F , # + 6 v c c c c c c c c c c c v / ",
"9 r 9 l c c c c c c c c c c c g 3 M G K ! } &.&.&.&.$.} L H N b > X X O c c c c c c v c c c c ^ ^ ^ ",
"8 r 9 c c c c c v c v c c c c z 3 3 3 3 W ~ &.&.&.&.$.~ 3 3 3 3 % X X X c c c c c c c c c v c ^ ^ v ",
"9 r 9 c c c c c ^ / / c v / 3 3 3 3 3 3 3 3 3 3 3 3 3 3 3 3 3 3 3 3 @ X v v c c c c c c c c c / l 8 ",
"9 t 9 c c c v ^ / c k ^ ^ / 3 3 3 3 3 3 3 3 3 3 3 3 3 3 3 3 3 3 3 3 = . 8 y ^ ^ v v v c c v ^ / l 9 ",
"0 y 0 c c c v ^ / k 8 / / / 3 3 3 3 3 3 3 3 3 3 3 3 3 3 3 3 3 3 3 1 ; . . t ( / / / c c c ^ ^ / l 9 ",
". . . l c c / ^ 9 t t 9 9 9 r ; 3 3 3 3 3 3 3 3 3 3 3 3 3 3 3 3 p c v v O O O   6 ( / / ^ / ^ 9 9 0 ",
"X X . 9 t v l l r t r t 9 6 t q , 1 3 3 3 3 3 3 3 3 3 3 3 3 3 4 d c c c k t O O 6 y l l l l l 0 0 0 ",
". X X . + ^ y 9 r t t t 8 O t 9 + > 3 3 3 3 3 3 3 3 3 3 3 3 3 h c c c c / k + + O   6 9 0 9 0 t 0 t ",
". 8 v O . X O + + 6 + + + + X X X o & g g g g g h h h h h h h x c v c c / k O 6 + + + 6 t 6 + + + + ",
"O y v r 6 X O O + O + O O O O X X + 9 v c c c c c c c c v c c c c c v v / k O O O O O + 8 + O O O O ",
"c v c / v . X X X O + X X X . .   l v c c c c c c c c c c c c c c l ^ / ( l O X . . X X . X X . . . ",
"l c c ^ c . X X X X X . X . k c v ^ ^ ^ ^ ^ / ^ / ^ / ^ v ^ c v ^ ^ / ^ 6 + X X 6 v O . X X X l l l ",
"l v c / c X O O X O O + + + k l v v v v v v v v v v v v / ^ c ^ / v v v O O X X 6 l 6 + + + 6 c c c ",
"l v / ^ v 9 t 9 . 6 t v v v X X O 9 t 0 r 0 0 9 0 0 9 6 ^ / / ( ^ 8 0 0 6 O . y 6   l v v v v c c c ",
"c ^ / / v 9 t t 6 y l c c v X O X O O O 6 6 6 6 6 + 6 t k y k t 0 6 6 6 X X X y 8 . c ^ c c c c v c ",
"c v c v l 8 8 9 9 y l l l l X . X . X . X O O X O O + 9 8 8 8 + O O O O . . . 8 +   l v k l l l k l "
};
