/* XPM */
static char *db2e2f9271684588c7cf3d5d3ac78dcbrArq5chpkj2tKIt5[] = {
/* columns rows colors chars-per-pixel */
"50 50 125 2 ",
"   c #1E1E1E",
".  c #252525",
"X  c #2B2B2B",
"o  c #393426",
"O  c #343434",
"+  c #3F3C36",
"@  c #3B3B3B",
"#  c #453E28",
"$  c #47402B",
"%  c #4C452F",
"&  c #5C4E23",
"*  c #554C2F",
"=  c #5F5126",
"-  c #4C4633",
";  c #514A34",
":  c #5B5134",
">  c #5A533D",
",  c #615327",
"<  c #64562B",
"1  c #705E24",
"2  c #6B5D31",
"3  c #786322",
"4  c #78652B",
"5  c #6E6035",
"6  c #716338",
"7  c #79663A",
"8  c #77693E",
"9  c #786A3F",
"0  c #434343",
"q  c #474847",
"w  c #484748",
"e  c #4C4C4C",
"r  c #4F504F",
"t  c #545041",
"y  c #5D5440",
"u  c #504F50",
"i  c #525252",
"p  c #5C5C5C",
"a  c #635A46",
"s  c #796D49",
"d  c #7F7145",
"f  c #6D6350",
"g  c #766D50",
"h  c #756E59",
"j  c #77705A",
"k  c #7A735E",
"l  c #636363",
"z  c #6B6B6B",
"x  c #767263",
"c  c #7B7562",
"v  c #757575",
"b  c #7B7871",
"n  c #7B7B7B",
"m  c #846D2E",
"M  c #826C3A",
"N  c #917735",
"B  c #8E7846",
"V  c #87774C",
"C  c #8C7A4F",
"Z  c #907A48",
"A  c #867853",
"S  c #907D51",
"D  c #807963",
"F  c #857E69",
"G  c #9D813F",
"H  c #9D8346",
"J  c #968653",
"K  c #A2884F",
"L  c #A28C55",
"P  c #A78A5E",
"I  c #A88B5F",
"U  c #A3905D",
"Y  c #B99958",
"T  c #AC9063",
"R  c #A5976C",
"E  c #AF9A68",
"W  c #B09366",
"Q  c #B69A6D",
"!  c #BDA269",
"~  c #B2A176",
"^  c #BDA779",
"/  c #BEAB7F",
"(  c #C29E5C",
")  c #C5A66C",
"_  c #C3A77A",
"`  c #C8AD7B",
"'  c #E7BC79",
"]  c #858585",
"[  c #8B8B8B",
"{  c #929292",
"}  c #CBB58B",
"|  c #CFB88F",
" . c #C2B696",
".. c #D7BF95",
"X. c #D4C19B",
"o. c #D8C39C",
"O. c #E3C594",
"+. c #EBC790",
"@. c #E3C99E",
"#. c #EECF9F",
"$. c #D0C4A7",
"%. c #DBCAAA",
"&. c #D2CBB5",
"*. c #EECFA0",
"=. c #EFD2A6",
"-. c #E6D0AE",
";. c #F0D3A9",
":. c #E8D7BA",
">. c #F3DAB7",
",. c #F4DEBF",
"<. c #DFD5C0",
"1. c #E2D9C5",
"2. c #E1DCCE",
"3. c #EBDFCA",
"4. c #E9E0CD",
"5. c #F6E5CD",
"6. c #F7E9D2",
"7. c #F7E9D4",
"8. c #F8E9D4",
"9. c #F9EDDB",
"0. c #F0EEE6",
"q. c #FAF0E3",
"w. c #FBF4EA",
"e. c #FDF8F1",
"r. c white",
/* pixels */
"n v e i i e z v v v v v v v ] [ [ [ ] { 0 . . X X X X @ @ @ @ X X X X X X @ p . O u n [ ] n v v v v ",
"n v e e i l z v n v v v v v n n n n n [ l p p 0 . X O 0 O O O X X X X X @ e p X O q l v [ ] n n ] n ",
"n v e e p n n v v v v v v v v v v v n ] [ [ { p . X O @ X X X X X X X X i i i X O O e i [ ] [ [ ] ] ",
"e e e v v v v v v n v v v v v v v v h 3 3 3 3 3 3 3 = . X X X X . . 0 i i @ X X O @ e i i u i n n v ",
"e p l z v v v v v v v v v v n b j j C G K L R P L G M ; - - @ q q q i l l w X X X @ q w e e i p p p ",
"q p v v v z v v v v v v v v ] F 3 3 G ' ;.,.r.8.,.' ( 3 3 5 r z n n n v n i   . O @ @ @ i i i O @ @ ",
"q l [ ] [ ] ] ] ] ] [ ] ] ] d B ( ` ..;.8.w.r.e.w.8.:.} ( L 2 x ] v v v v v n X X X @ @ 0 @ @ @ O X ",
"0 p n n n n n n n n n n n n 3 H +.3.6.6.e.r.r.r.r.r.e.8.+.) 3 j [ v v v v v n X X X O @ O @ @ O O X ",
". @ i e e i e e e e e e e e 3 L ,.w.r.r.r.r.r.r.r.r.r.r.,.} 3 k [ v v v v v n . X X . X X X X . . X ",
". O 0 @ @ 0 e i i q 0 0 : < | o.,.w.r.r.r.r.r.r.r.r.e.8.,.-.} V : [ ] n v v v z i . X X X . O z q . ",
"X X @ O O O e e e 0 O @ , 3 ,.,.,.w.r.r.r.r.r.r.r.r.w.,.,.,.,.L , [ ] ] v v v v l X O O O O O n i O ",
". X X X O @ @ O X . X . & 3 ,.,.,.L L ,.w.r.r.r.r.,.} 3 ,.,.,.L < e v { [ ] v v n n n n n n n n n n ",
"p e . X X O O O X X X z 6 3 ,.o.L ^ ^ J %.8.8.8.6.L E } L ^ ,.L < i p l [ ] n v v v v n v v v v v v ",
"] l . X X X X X X X . { d 3 ,.} 3 } | 3 } ,.,.,.,.3 L ,.3 L ,.L < i u u [ ] [ v v v v v n v v v v z ",
"n ] n O X X . O n l i { d 3 ,.} 3 &.&.3 } ,.,.,.,.3 R r.3 L ,.L < @ @ @ e z { { [ [ v v v v v n v v ",
"] v l O X X q i n i @ p C G ,.o.L  . .L %.8.8.8.6.L ~ &.L ^ 3.! 7 O O @ q u l p z [ n n n n n n n n ",
"] n u X X   l n n 0     Q ' ,.,.3.K J ,.w.r.r.r.r.,.} 3 ,.,.,.+.I X O @ O @ O O i { { { { [ { [ { { ",
"@ @ @ X @ n v v v v n . P ' w.w.w.-.%.w. .R R R R w.3.} w.w.w.#.I . X X X X X X X X O @ O e i i 0 @ ",
"O O O 0 u n v v v v v @ T ' r.r.r.q.4.&.J 3 3 3 3 &.:.7.r.r.r.=.T 0 0 0 0 @ X X X . O @ O 0 q e 0 @ ",
"      z n v n v v v z R Q ' r.r.r.r.&.3 3 3 3 3 3 3 R r.r.r.r.=._ n n n n i . . . . X X X . . O O O ",
"l z l v v v v v n v v v Z H r.r.r.r.&.3 3 3 3 3 3 3 R r.r.r.r./ Z n v v v z z z z n q O . 0 e n v v ",
"z n v n n v v v v v v v 9 3 r.r.r.r.&.3 3 3 3 3 3 3 R r.r.r.r.R 9 v v v v v v v n { e O . q i ] ] [ ",
"] [ [ [ ] z v v v v v 6 K ) r.r.r.r.&.3 K ) ! ! ! 3 R r.r.r.r.X.L 3 h v v v v z n { q O . w u w z { ",
"i z n ] ] ] n ] n v v 4 L ! 7.q.r.r.0.&.1.4.4.4.4.&.2.r.r.e.6.o.Y 3 h v v n ] ] ] { e O X w i u p p ",
"q p v ] ] ] ] ] [ n v 3 L ) ,.7.r.r.r.r.r.r.r.r.r.r.r.r.r.w.,.+.Y 3 j v v n [ ] ] ] q O . 0 r i r u ",
"e i u u i n v n [ [ [ 3 &.r.r.r.r.r.r.r.r.r.r.r.r.r.r.r.r.r.r.8.} 3 c [ [ [ { . X @ @ O X X X i i u ",
"e i i u i l l l z l p 3 $.q.r.r.r.r.r.r.r.r.r.r.r.r.r.r.r.r.r.8.} 3 c ] z z z O O @ O O . w i 0 0 w ",
"e i i i u r u r r 0 O 3 } ,.r.r.r.r.r.r.r.r.r.r.r.r.r.r.r.r.r.8.} 5 J [ e e i @ @ @ X .   l v O O @ ",
"  O @ @ @ @ @ @ @ @ O 3 } ,.,.7.r.r.r.r.r.r.r.r.r.r.r.r.r.w.,.,.} 3 > e i e O @ O   z n n ] [ { p   ",
"X O O O O O O O O O O 3 ` ;.,.5.w.w.w.w.w.w.w.w.w.w.w.w.w.9.,.,.| m a r 0 @ @ 0 q w z v v n ] ] z e ",
"  X X . .   . . . . . 3 ( ' ,.,.,.,.,.,.,.,.,.,.,.,.,.,.,.,.,.,.o.H f i X X O u p n v v v v v ] [ [ ",
"z l e r i v v z v z z h B G +.*.,.,.,.,.,.,.,.,.,.,.,.,.,.;.+.! C y + X . @ u v v v v n v v v v ] ] ",
"l l u u p n v n v v v v g s Y ) } @.;.;.>.,.,.,.,.=.=.;.} ` ( M * @ O X @ w p v v v v v n v v v n ] ",
"q u r r i n v v v v v v v v 3 3 3 ( ' ' ;.,.,.5.,.' ' ' 3 3 3 % # @ @ @ n n v v v v v v v v v v n [ ",
"e u r z z v v v n v n v v n j s 3 N G G K L J L L G G G 3 3 3 $ O X O O v v v v n v v v v v v ] ] ] ",
"e u u z n v n v v v v v v v v j 3 3 3 3 3 3 3 3 3 3 3 3 3 3 3 # X X X X v v v v v v n v v v v ] ] n ",
"e u r z v v z v ] [ [ v n [ 3 3 3 3 3 3 3 3 3 3 3 3 3 3 3 3 3 3 & . X X n v v v v z v v n v v [ z w ",
"e u r v v v ] n [ v l ] ] [ 3 3 3 3 3 3 3 3 3 3 3 3 3 3 3 3 3 3 2 p @ . q l ] n n ] n v v n n [ z e ",
"r i u v v v n [ [ z w [ [ [ 3 3 3 3 3 3 3 3 3 3 3 3 3 3 3 3 3 3 s n w . . i { { [ [ v v z ] [ { z e ",
". X . z n v ] ] e e i e e e e > 3 3 3 3 3 3 3 3 3 3 3 3 3 3 3 j v v n n O O O   w { [ [ [ [ ] w r r ",
"X X . e p v z z u i i i e 0 u t < 1 3 3 3 3 3 3 3 3 3 3 3 4 s z v v v v l u @ O @ p z z z z z u r u ",
"X X . . O ] p e i i i i w @ u e @ = 3 3 3 3 3 3 3 3 3 3 3 9 v v v v v v [ z O @ O . 0 e r e r u u i ",
". q n O . O O @ @ @ @ @ @ @ X X X o % h h j j h j j k j j x n v v n v v [ l @ @ @ @ @ 0 r 0 @ @ @ @ ",
"@ i n u 0 . O @ O @ @ O O O O X X @ e n v v v v v v v v v v v v v v v n [ l O O O @ O O q @ @ O O O ",
"v n v [ n . . X . @ @ X X X . .   z n v v v v v v v v v v v z v v z ] [ { z O X X   X X X X X     . ",
"z v v [ v . X X X X X . X . l v n ] ] ] ] ] ] [ [ ] ] ] ] ] v n ] ] [ ] 0 @ X X @ n O . . X O z z z ",
"z v v ] v X O O X O O @ @ @ l z n n n n n n n n n n n n [ ] v ] ] n ] v @ O . O w z 0 @ @ @ @ n v v ",
"z n [ [ n e i e . 0 i n n n X X O e i i e i e i e r r q ] [ [ { [ q u r @ O . p w   z n n n n v v v ",
"v ] ] [ n e i u 0 p z n v n X X O O O O @ 0 # 0 @ @ w u l l l i r 0 @ 0 O X X i q . v ] v v v v v v ",
"v n n n z e w e e p z z z z X . X . . . O O O O O O @ u w w w O O O O O . . . e @   z n z z z z z z "
};
