/* XPM */
static char *result[] = {
/* columns rows colors chars-per-pixel */
"50 50 179 2 ",
"   c #7E7E7E",
".  c #727272",
"X  c #4D4E4D",
"o  c #505050",
"O  c #515051",
"+  c #4C4B4C",
"@  c #6A6A6A",
"#  c #767676",
"$  c gray46",
"%  c #747474",
"&  c #868686",
"*  c gray53",
"=  c #888888",
"-  c #8E8E8E",
";  c #414141",
":  c #222222",
">  c gray15",
",  c #282828",
"<  c gray17",
"1  c #2A2A2A",
"2  c gray19",
"3  c #3A3A3A",
"4  c gray23",
"5  c #3C3C3C",
"6  c #595859",
"7  c #373737",
"8  c #818181",
"9  c gray55",
"0  c #797979",
"q  c gray45",
"w  c gray49",
"e  c #4E4E4E",
"r  c gray33",
"t  c #646464",
"y  c gray44",
"u  c gray50",
"i  c #8B8B8B",
"p  c #686868",
"a  c gray34",
"s  c gray37",
"d  c #434343",
"f  c #272727",
"g  c #313131",
"h  c gray24",
"j  c gray20",
"k  c #323232",
"l  c #2D2D2D",
"z  c #2C2C2C",
"x  c #3E3E3E",
"c  c #474847",
"v  c #575657",
"b  c gray27",
"n  c gray39",
"m  c #6F6F6F",
"M  c gray54",
"N  c #808080",
"B  c #747374",
"V  c #4C4C4C",
"C  c #4E4F4E",
"Z  c gray35",
"A  c gray47",
"S  c #1D131E",
"D  c #535353",
"F  c #545354",
"G  c #555555",
"H  c gray22",
"J  c #494949",
"K  c #898989",
"L  c gray31",
"P  c gray30",
"I  c #B19998",
"U  c #C4B59F",
"Y  c #252525",
"T  c gray26",
"R  c gray32",
"E  c gray16",
"W  c #525152",
"Q  c #565556",
"!  c gray48",
"~  c #777777",
"^  c gray29",
"/  c #565656",
"(  c #5F5F5F",
")  c #717171",
"_  c #7B7B7B",
"`  c #7C7C7C",
"'  c #E5E6C7",
"]  c #464646",
"[  c gray38",
"{  c #484848",
"}  c #5D5D5D",
"|  c #1D1D1D",
" . c #393939",
".. c gray21",
"X. c #6C6C6C",
"o. c white",
"O. c #353535",
"+. c #424142",
"@. c #7E7F7E",
"#. c #7A7B7A",
"$. c #7B7A7B",
"%. c #343434",
"&. c #232323",
"*. c #4C4D4C",
"=. c #4E4C4E",
"-. c #4D4C4D",
";. c #4E4D4E",
":. c gray14",
">. c #3F3F3F",
",. c gray25",
"<. c gray28",
"1. c #6D6D6D",
"2. c #2F2F2F",
"3. c #4B4B4B",
"4. c gray13",
"5. c gray40",
"6. c #656565",
"7. c #848484",
"8. c #676767",
"9. c gray57",
"0. c #8D8D8D",
"q. c #726B7E",
"w. c #838383",
"e. c #616061",
"r. c #4D4A5D",
"t. c #4F4E4F",
"y. c DimGray",
"u. c gray43",
"i. c #3D3748",
"p. c #515151",
"a. c gray52",
"s. c gray12",
"d. c #1E1E1E",
"f. c #202020",
"g. c gray59",
"h. c #909090",
"j. c #535253",
"k. c #444444",
"l. c #4B4A4B",
"z. c #2E2533",
"x. c #555455",
"c. c #484648",
"v. c #585858",
"b. c gray51",
"n. c gray56",
"m. c #474647",
"M. c #504F50",
"N. c #5F5E5F",
"B. c #1C121D",
"V. c #E1E2C3",
"C. c #19101A",
"Z. c #AB9E8B",
"A. c #9A8584",
"S. c #988382",
"D. c #A79A87",
"F. c #181019",
"G. c gray58",
"H. c #626262",
"J. c #ABAC95",
"K. c #928676",
"L. c #150E16",
"P. c #150D15",
"I. c #8E8373",
"U. c #A6A690",
"Y. c #939393",
"T. c gray18",
"R. c gray42",
"E. c gray36",
"W. c #505150",
"Q. c #504E50",
"!. c #666566",
"~. c #5A5A5A",
"^. c #595A59",
"/. c #929292",
"(. c #6A696A",
"). c gray11",
"_. c #4C4A4C",
"`. c #606060",
"'. c #484748",
/* pixels */
"  . X o O + @ # $ $ $ % % % & * = * * - ; : > , < 1 2 3 4 3 5 2 < < 1 1 , 4 6 , 7 o 8 9 = 0 q % % q ",
"w q + e r t y q # # # q q %   u u w u i p a s d f 1 g h j g k l < z < < x c v 1 k b n m M 8 N   u   ",
"u B V C Z 0 # $ # # # $ $ $ % $ % . A * S S S S S S S S S S < < z < < z D F G 1 2 H J G 9 * K * = & ",
"J L P y % $ # # # # # # # $ # q q q S S I I U U U U U U I I S S , Y T R o x 1 E g 3 e W o L Q ! 0 ~ ",
"^ / ( ) % $ # # # # # # # $ w _ ` S I U U ' ' ' ' ' ' ' ' U U I S ] / [ n { E E g 3 ] J o e D s } s ",
"{ ( # ) q q q q q q q q q . & 9 S I U ' ' ' ' ' ' ' ' ' ' ' ' U I S 0 A ! D | E g 4  .5 G r o ..7 7 ",
"{ p K & & & & & & & & & & & 9 X.S I ' ' ' ' o.o.o.o.o.o.' ' ' ' U S # # # % ~ < z z  .5 h 5 h 4 O.< ",
"+.s @._ _ #._ _ $._ ` _ _ ! w S I U ' ' ' o.o.o.o.o.o.o.o.' ' ' U I S # % $   E < 1 %.H ..7 7 H 2 1 ",
"&. .O *.P e =.-.-.;.P e ;.e L S I U ' ' o.o.o.o.o.o.o.o.o.o.' ' U I S $ % %   &.> l E E 1 1 1 :., l ",
"f j ; >.,.x P o R <.,.,.,.x ,.S I U ' ' o.o.o.o.o.o.o.o.o.o.' ' U I S 8 q q A p D > E E 1 E l 1.{ f ",
", 2.3 H 7 ..3.L e ; H 3  . .7 S I U ' ' o.o.o.o.o.o.o.o.o.o.' ' U I S * ~ % % ! t l k k j k H   D 2.",
": f < 1 2 h 4 7 , f 1 :.&.: 4.S I U U ' ' o.o.o.o.o.o.o.o.' ' U U I S - = 8 q # ~ w   w w w _ # 0 ! ",
"( 3.Y 1 z k 2 g 1 < E @ t 5.Z S I U I ' ' ' o.o.o.o.o.o.' ' ' I U I S 6.K 7.u $ $ $ $ # # # $ % q q ",
"7.8.f 1 < < 1 l z z E 9.0.- 0 S q.U I I ' o.o.' ' ' ' o.o.' I I U q.S o * * K % $ $ # $ $ $ # # q q ",
"  w.0 O.1 < , g   e.o 9.i * $ S r.I I r.o.o.o.o.' ' o.o.o.o.r.I I r.S  .t.y.9.9 = K # % $ $ $ $ % . ",
"w A 6.k 1 E ] G ` G 3 Z u.M w 0 S I i.o.o.' ' o.o.o.o.' ' o.o.i.I S H 4 ] p.6.s u.i   ` w w w w ` ` ",
"a.~ L 2 E s.5.` ! ; d.f.r g.i 8 S r.i.o.S S q.' ' ' ' q.S S o.i.r.S O.5 H  ...j r g.9.9.9.0.- - h.9.",
"7 4 5 f H ! $ # # # 0 > > f * i * S I ' S r.r.r.' ' r.r.r.S ' I S , , E , 1 l z E E 7 H ..3.O j.T  .",
"k O.j ,.L ! $ $ $ ~ # >.7 f 6.q 7.N S I I q.r.U S S U r.q.I I S ; ; ; ; k...< z < E %...O.; k.l.T  .",
"f.:.s.y ` $ # $ # # $ N G f.S S S S S S q.I ' o.r.r.o.' I q.S S S S S S u / f.:.Y :., < 1 f , %.k j ",
"s p 8.% $ $ $ # # # # $ m S o.' I ' q.S q.I ' ' o.' ' ' I q.S q.' I ' o.S 1.y.p 1.` b %., T L w ! ~ ",
"y ! A A A $ # # # # # q S I I q.q.I q.z.r.r.r.o.r.o.r.' r.r.z.q.I q.q.I I S $ #   h.^ O.f ] x.8 a.M ",
"u 0.M K w.) . . . q $ ) S r.o.o.z.z.z.q.S S S S S S S S S S q.z.z.z.o.o.r.S q . ! h.{ 7 f c.o { u.0.",
"v.X.0 & & 8 b.b.b.0 q b.S z.r.I o.o.' o.o.I I q.q.q.q.I I o.o.' o.o.I r.z.S w.w.a.n.J ..f m.R M.Z N.",
"m.} q b.7.* & * K ` # = S ' S S S z.z.r.r.' ' q.o.' q.' ' r.r.z.z.S S B.V.B.M b.b.* { ..> k.L O O ;.",
"l.W e L Q ! $ A K i 9 n.C.Z.A.S S q.r.' I q.r.U ' U U r.q.I ' r.q.S S S.D.F.G.:.1  .3 3 E f E G j.R ",
"l.r p.p.r n H.t X.H.} S J.K.L...S q.I r.o.o.' r.o.' r.' o.o.r.I q.S 7.P.I.U.S g %.4 O.g f <.D k.d b ",
"+ / R R R L p.e o ,.O.S r.S S j S r.r.' r.q.r.U ' U U r.q.r.' r.r.S i S S r.S 5 4 5 1 &.d.[ # 2.7 3 ",
"> g 3 4 4 4 4 4 5 3  .S U I S o S z.I r.o.o.' r.o.' r.' o.o.r.I z.S 3.S I U S 3 %.s.@ _ 0 * M Y.a f.",
"f T...%.%.%.%.%.%.%.j S o.I S s S S z.I r.q.r.I r.r.I r.q.r.I z.S S W S I o.S k.b <.m A % w b.M R.V ",
": > , f > :.&.&.:.: : S o.I S ~ ~ S q.I ' ' I r.S S r.I ' ' I q.S j.x.S I o.S e E.w # $ $ q q K - 9 ",
"@ n 3.e D ) m m m m u.S o.S S # S r.z.r.r.q.r.S I q.S r.q.r.r.z.r.S %.S S o.S . % % # # # q $ $ N & ",
"p n M.O Z ! ~ # ~ # % S r.r.r.S S U I z.I I q.S q.r.S q.I I z.I U S S r.r.r.S $ ~ # # $ # # % . w & ",
"] L L ;.G 0 # $ # $ S r.' o.o.' S ' I z.z.S S S I q.S S S z.z.I ' S ' o.o.' r.S $ % $ # # # % . w * ",
"^ O ;.R.) # # % # # S ' o.o.r.' S S ' I i.r.S S S S S S r.i.I ' S S ' r.o.o.' S # # # # # $ $ 7.& & ",
"^ W.Q.) A # # % A # S I r.o.r.r.S q.z.z.z.U I U r.r.U I U z.z.z.q.S r.r.o.r.I S # # # # $ # ~ = 7.u ",
"3.W t.y % $ ) # = M - S I r.' I S ' o.U S S z.i.q.q.i.z.S S U o.' S I ' r.I S q . . $ # # q % i y.J ",
"3.p.t.) % q   N i ) H.7.S S S S S o.U U z.S S S S S S S S z.U U o.S S S S S 7.u u N ~ $ $ ` N i @ P ",
"e G o ) % . b.M 0.!.{ n.i 9 r S S q.q.q.S E &.p.w q % # # S q.q.q.S S Y : D Y.0.M M ~ q . w.K 9 X.V ",
"f f :.y ` q * b.^ M.O V V V p.S I o.' q.S f 7.~ q # # # # S q.' o.I S ! H %.%.d.k.Y.i i i M a.{ V L ",
"E < E V v.A m p O W W W + d W S q.o.U z.S R A q $ # # # # S z.U o.q.S % H.o  .g h ~.@ X.R.1.R.t.L o ",
", < , Y H b.^.;.W W j.j.] 7 p.S U q.S S [ _ % q # # # # # # S S q.U S # n.p 7 5 %.&.] e L V e p.o o ",
"4.{ _ g , l 7 h 5 5 5 h 4 3 l S ' S ' S % % $ q # # # # # # S ' S ' S % M t O.h 3 3 4 >.D ; h 5 h 5 ",
"3 v._ L k.f k 7 7 H 5 %.O.O.T.S U S ' U S # $ $ # # # # # S U ' S U S ` i t O.....7 O.H { 3 O.O.O.O.",
". 0 % - 0 :.1 < f O.x E 1 1 S z.I r.I q.S S % % % % % % S S q.I r.I z.S /.@ H 1 f : 1 < , < 1 : : &.",
"X.$ . * % &.1 < < < z E E S z.' r.' r.' q.S * * * * * * S q.' r.' r.' z.S  .< 1 >.A ..> E , l u.R.(.",
"@ A ~ = % T.k g < g g 3  .S I q.U q.U q.q.S ` ` ` ` ` _ S q.q.U q.U q.I S k E k ] m d  .3  .x ! # % ",
"y.  K = _ -./ M.&.T R ` ` S ' r.o.r.o.r.S ;.;.;.;.;.;.] a.S r.o.r.o.r.' S O.> v.k.).R.` ` ` ! ~ $ q ",
"A a.= M w _.D p.k.s u.A ~ ! S S S S S S x ,.,.,.,.>.] W.`.[ S S S S S S 2 T.f / ] : $ w.# ~ ~ # A $ ",
") _ 0 w u.<.^ J { ( R.y.y.R.E > E Y > Y 2...j j j k 4 V '.{ J H k %.O.j f , :.^ x | X.` p R.@ y.y.p "
};
