/* XPM */
static char *result[] = {
/* columns rows colors chars-per-pixel */
"50 50 165 2 ",
"   c #7E7E7E",
".  c #727272",
"X  c #4D4E4D",
"o  c #505050",
"O  c #515051",
"+  c #4C4B4C",
"@  c #6A6A6A",
"#  c #767676",
"$  c gray46",
"%  c #747474",
"&  c #868686",
"*  c gray53",
"=  c #888888",
"-  c #8E8E8E",
";  c #414141",
":  c #222222",
">  c gray15",
",  c #282828",
"<  c gray17",
"1  c #2A2A2A",
"2  c gray19",
"3  c #3A3A3A",
"4  c gray23",
"5  c #3C3C3C",
"6  c #595859",
"7  c #373737",
"8  c #818181",
"9  c gray55",
"0  c #797979",
"q  c gray45",
"w  c gray49",
"e  c #4E4E4E",
"r  c gray33",
"t  c #646464",
"y  c gray44",
"u  c gray50",
"i  c #8B8B8B",
"p  c #1D131E",
"a  c #323232",
"s  c #2D2D2D",
"d  c #2C2C2C",
"f  c #3E3E3E",
"g  c #474847",
"h  c #575657",
"j  c gray27",
"k  c gray39",
"l  c #6F6F6F",
"z  c gray54",
"x  c #808080",
"c  c #747374",
"v  c #4C4C4C",
"b  c #4E4F4E",
"n  c gray35",
"m  c #B19998",
"M  c #C4B59F",
"N  c #535353",
"B  c #545354",
"V  c #555555",
"C  c gray22",
"Z  c #494949",
"A  c #898989",
"S  c gray31",
"D  c gray30",
"F  c #E5E6C7",
"G  c #252525",
"H  c gray26",
"J  c gray32",
"K  c gray16",
"L  c #313131",
"P  c #525152",
"I  c #565556",
"U  c gray48",
"Y  c #777777",
"T  c gray29",
"R  c #565656",
"E  c #5F5F5F",
"W  c #717171",
"Q  c #7B7B7B",
"!  c gray38",
"~  c #484848",
"^  c #464646",
"/  c gray37",
"(  c #5D5D5D",
")  c white",
"_  c gray47",
"`  c #1D1D1D",
"'  c #393939",
"]  c gray21",
"[  c #686868",
"{  c gray24",
"}  c #353535",
"|  c #424142",
" . c #7E7F7E",
".. c #7A7B7A",
"X. c #7B7A7B",
"o. c #7C7C7C",
"O. c #343434",
"+. c #232323",
"@. c #4C4D4C",
"#. c #4E4C4E",
"$. c #4D4C4D",
"%. c #4E4D4E",
"&. c gray14",
"*. c #272727",
"=. c gray20",
"-. c #3F3F3F",
";. c gray25",
":. c gray28",
">. c #6D6D6D",
",. c #2F2F2F",
"<. c #4B4B4B",
"1. c gray13",
"2. c gray40",
"3. c #726B7E",
"4. c #656565",
"5. c #848484",
"6. c #676767",
"7. c gray57",
"8. c #8D8D8D",
"9. c #4D4A5D",
"0. c #838383",
"q. c #616061",
"w. c #3D3748",
"e. c #4F4E4F",
"r. c DimGray",
"t. c gray43",
"y. c #515151",
"u. c gray12",
"i. c #1E1E1E",
"p. c #202020",
"a. c gray59",
"s. c #2E2533",
"d. c #585858",
"f. c #6C6C6C",
"g. c #1C121D",
"h. c #5F5E5F",
"j. c #474647",
"k. c gray51",
"l. c #4B4A4B",
"z. c gray56",
"x. c gray58",
"c. c #535253",
"v. c #626262",
"b. c #444444",
"n. c #434343",
"m. c #939393",
"M. c gray34",
"N. c gray18",
"B. c #4F504F",
"V. c gray42",
"C. c #555455",
"Z. c gray36",
"A. c #504F50",
"S. c #494849",
"D. c #595A59",
"F. c #505150",
"G. c #504E50",
"H. c #666566",
"J. c gray52",
"K. c #5A5A5A",
"L. c #6A696A",
"P. c gray11",
"I. c #4C4A4C",
"U. c #606060",
"Y. c #484748",
/* pixels */
"  . X o O + @ # $ $ $ % % % & * = * * - ; : > , < 1 2 3 4 3 5 2 < < 1 1 , 4 6 , 7 o 8 9 = 0 q % % q ",
"w q + e r t y q # # # q q %   u u w u i p p p p p p p p p p a s < d < < f g h 1 a j k l z 8 x   u   ",
"u c v b n 0 # $ # # # $ $ $ % $ % . p p m m M M M M M M m m p p d < < d N B V 1 2 C Z V 9 * A * = & ",
"Z S D y % $ # # # # # # # $ # q q p m M M F F F F F F F F M M m p G H J o f 1 K L 3 e P o S I U 0 Y ",
"T R E W % $ # # # # # # # $ w Q p m M F F F F F F F F F F F F M m p R ! k ~ K K L 3 ^ Z o e N / ( / ",
"~ E # W q q q q q q q q q . & 9 p m F F F F ) ) ) ) ) ) F F F F M p 0 _ U N ` K L 4 ' 5 V r o ] 7 7 ",
"~ [ A & & & & & & & & & & & 9 p m M F F F ) ) ) ) ) ) ) ) F F F M m p # # % Y < d d ' 5 { 5 { 4 } < ",
"| /  .Q Q ..Q Q X.Q o.Q Q U w p m M F F ) ) ) ) ) ) ) ) ) ) F F M m p # % $   K < 1 O.C ] 7 7 C 2 1 ",
"+.' O @.D e #.$.$.%.D e %.e S p m M F F ) ) ) ) ) ) ) ) ) ) F F M m p $ % %   +.> s K K 1 1 1 &., s ",
"*.=.; -.;.f D o J :.;.;.;.f ;.p m M F F ) ) ) ) ) ) ) ) ) ) F F M m p 8 q q _ [ N > K K 1 K s >.~ *.",
", ,.3 C 7 ] <.S e ; C 3 ' ' 7 p m M M F F ) ) ) ) ) ) ) ) F F M M m p * Y % % U t s a a =.a C   N ,.",
": *.< 1 2 { 4 7 , *.1 &.+.: 1.p m M m F F F ) ) ) ) ) ) F F F m M m p - = 8 q # Y w   w w w Q # 0 U ",
"E <.G 1 d a 2 L 1 < K @ t 2.n p 3.M m m F ) ) F F F F ) ) F m m M 3.p 4.A 5.u $ $ $ $ # # # $ % q q ",
"5.6.*.1 < < 1 s d d K 7.8.- 0 p 9.m m 9.) ) ) ) F F ) ) ) ) 9.m m 9.p o * * A % $ $ # $ $ $ # # q q ",
"  0.0 } 1 < , L   q.o 7.i * $ % p m w.) ) F F ) ) ) ) F F ) ) w.m p 4 ' e.r.7.9 = A # % $ $ $ $ % . ",
"w p p p 1 K ^ V o.V 3 n t.z w 0 p 9.w.) p p 3.F F F F 3.p p ) w.9.p C 4 ^ y.4./ t.i   o.w w p p p o.",
"p 3.F p p u.2.o.U ; i.p.r a.i 8 . p m F p 9.9.9.F F 9.9.9.p F m p 1 } 5 C ' ] =.r a.7.7.7.p p F 3.p ",
"p ) 3.M p U $ # # # 0 > > *.* i * & p m m 3.9.M p p M 9.3.m m p *., , K , 1 s d K K 7 C ] p M 3.) p ",
"p 3.M 3.M p $ $ $ Y # -.7 p p p p p p p 3.m F ) 9.9.) F m 3.p p p p p p p ] < d < K O.] p M 3.M 3.p ",
"p F 3.m 9.M p p p p p p p p ) F m F 3.p 3.m F F ) F F F m 3.p 3.F m F ) p p p p p p p p M 9.m 3.F p ",
"/ p M 9.M 3.F F M s.M F p m m 3.3.m 3.s.9.9.9.) 9.) 9.F 9.9.s.3.m 3.3.m m p F M s.M F F 3.M 9.M p Y ",
"y p 9.m 3.m 3.3.9.M s.3.p 9.) ) s.s.s.3.p p p p p p p p p p 3.s.s.s.) ) 9.p 3.s.M 9.3.3.m 3.m 9.p z ",
"u 8.p s.3.m M m 3.s.m 9.p s.9.m ) ) F ) ) m m 3.3.3.3.m m ) ) F ) ) m 9.s.p 9.m s.3.m M m 3.s.p t.8.",
"d.f.p m F 3.p p p p p p 9.s.p p p s.s.9.9.F F 3.) F 3.F F 9.9.s.s.p p g.s.9.p p p p p p 3.F m p n h.",
"j.( p ) 3.p & * A o.# = p p 9.9.p 3.9.F m 3.9.M F M M 9.3.m F 9.3.p 9.9.p p z k.k.* ~ ] p 3.) p O %.",
"l.P e p p p $ _ A i 9 z.. e p p p 3.m 9.) ) F 9.) F 9.F ) ) 9.m 3.p p p 9 z x.&.1 ' 3 3 p p p V c.J ",
"l.r y.y.r k v.t f.v.( E y.H 4 p p 9.9.F 9.3.9.M F M M 9.3.9.F 9.9.p p & [ r.l L O.4 } L *.:.N b.n.j ",
"+ R J J J S y.e o ;.} a =.O.4 =.p s.m 9.) ) F 9.) F 9.F ) ) 9.m s.p i z D $.y.5 4 5 1 +.i.! # ,.7 3 ",
"> L 3 4 4 4 4 4 5 3 ' o.U U J o p p s.m 9.3.9.m 9.9.m 9.3.9.m s.p p <.D N T ] 3 O.u.@ Q 0 * z m.M.p.",
"*.N.] O.O.O.O.O.O.O.=.U $ Y / / E p 3.m F F m 9.p p 9.m F F m 3.p O P B.; f 3 b.j :.l _ % w k.z V.v ",
": > , *.> &.+.+.&.: : 0 # # Y Y p 9.s.9.9.3.9.p m 3.p 9.3.9.9.s.9.p C.N *.,.7 e Z.w # $ $ q q A - 9 ",
"@ k <.e N W l l l l t.% $ # # # p M m s.m m 3.p 3.9.p 3.m m s.m M p O.N.> ' %.. % % # # # q $ $ x & ",
"[ k A.O n U Y # Y # % q $ # # # p F m s.s.p p p m 3.p p p s.s.m F p 2 s 3 S.D.$ Y # # $ # # % . w & ",
"^ S S %.V 0 # $ # $ $ % # $ # $ p p F m w.9.p p p p p p 9.w.m F p p { -.Q 0 _ # $ % $ # # # % . w * ",
"T O %.V.W # # % # # # $ # # $ U p 3.s.s.s.M m M 9.9.M m M s.s.s.3.p N.N.$ % # # # # # # # $ $ 5.& & ",
"T F.G.W _ # # % _ # Y $ # # % U p F ) M p p s.w.3.3.w.s.p p M ) F p 1 1 % % # # # # # # $ # Y = 5.u ",
"<.P e.y % $ W # = z - W o.A 9 9 p ) M M s.p p p p p p p p s.M M ) p , d Q _ % q . . $ # # q % i r.Z ",
"<.y.e.W % q   x i W v.5.0.= 2.p p 3.3.3.p L N.^ n % $ 0 ( p 3.3.3.p p , b.! 5.u u x Y $ $ o.x i @ D ",
"e V o W % . k.z 8.H.~ z.i 9 r p m ) F 3.p K +.y.w q % # # p 3.F ) m p G : N m.8.z z Y q . 0.A 9 f.v ",
"*.*.&.y o.q * k.T A.O v v v y.p 3.) M s.p *.5.Y q # # # # p s.M ) 3.p U C O.O.i.b.m.i i i z J.~ v S ",
"K < K v d._ l [ O P P P + n.P p M 3.p p ^ J _ q $ # # # # # p p 3.M p % v.o ' L { K.@ f.V.>.V.e.S o ",
", < , G C k.D.%.P P c.c.^ 7 y.p F p F p ! Q % q # # # # # # p F p F p # z.[ 7 5 O.+.^ e S v e y.o o ",
"1.~ Q L , s 7 { 5 5 5 { 4 3 s p M p F M p % $ q # # # # # p M F p M p % z t } { 3 3 4 -.N ; { 5 { 5 ",
"3 d.Q S b.*.a 7 7 C 5 O.} } p s.m 9.m 3.p p $ $ # # # # p p 3.m 9.m s.p i t } ] ] 7 } C ~ 3 } } } } ",
". 0 % - 0 &.1 < *.} f K 1 p s.F 9.F 9.F 3.p % % % % % % p 3.F 9.F 9.F s.p @ C 1 *.: 1 < , < 1 : : +.",
"f.$ . * % +.1 < < < d K K p m 3.M 3.M 3.3.p * * * * * * p 3.3.M 3.M 3.m p ' < 1 -._ ] > K , s t.V.L.",
"@ _ Y = % N.a L < L L 3 ' p F 9.) 9.) 9.p o.o.o.o.o.o.Q * p 9.) 9.) 9.F p a K a ^ l n.' 3 ' f U # % ",
"r.  A = Q $.R A.+.H J o.o.  p p p p p p e.%.%.%.%.%.%.^ J.8.p p p p p p 5 } > d.b.P.V.o.o.o.U Y $ q ",
"_ J.= z w I.N y.b./ t._ Y U N.s ,.} ] O.f ;.;.;.;.-.^ F.U.! v.V o -.; ; 2 N.*.R ^ : $ 0.# Y Y # _ $ ",
"W Q 0 w t.:.T Z ~ E V.r.r.V.K > K G > G ,.] =.=.=.a 4 v Y.~ Z C a O.} =.*., &.T f ` f.o.[ V.@ r.r.[ "
};
