/* XPM */
static char *_24d8ce657e142b8dc99ad54060dec0bn1VmplWJTbRNTfnm[] = {
/* columns rows colors chars-per-pixel */
"32 48 14 1 ",
"  c None",
". c #751105",
"X c #493357",
"o c #44536C",
"O c #546178",
"+ c #971201",
"@ c #737E91",
"# c #929AA9",
"$ c #A1A9B5",
"% c #B1B7C2",
"& c #C0C5CE",
"* c #D0D4DA",
"= c #DFE2E6",
"- c #EFF0F2",
/* pixels */
"                                ",
"                                ",
"                                ",
"                                ",
"                                ",
"             %%%%%%             ",
"           %%=----=%%           ",
"          %=--------=%          ",
"         %=----------=%         ",
"         %------------%         ",
"        %=------------=%        ",
"        %--------------%        ",
"        &--------------&        ",
"        &-=OO=----=OO=-&        ",
"       @=-O..O----O..O-=@       ",
"       @=-O++O----O++O-=@       ",
"       #--=OO=----=OO=--#       ",
"       #------&@@&------#       ",
"      @&---&@oooooo@&--=&@      ",
"      @&=-------------=-&@      ",
"      @*-=-------------=*@      ",
"      @*=-=-----------==*@      ",
"      @*==-----------=-=*@      ",
"     O#==-=---------=-===#O     ",
"     O&===-=-=---=-=-====&O     ",
"     O&===*==-=-=-=-===*=&O     ",
"     O*==*====-=-======*=&O     ",
"  @@@@*==*===========*=*=&@OOO  ",
" X##@#==**===========*=**&#@##X ",
" X###&=*&===*========****&&@##X ",
"  XX#&*&&===*====*===&***&&OXX  ",
"   X@*&&*==*=====*===&***&&#X   ",
" XXX#&@&*==*=====*===&***&&%X   ",
" X&&&XX@==**=====*===#&**&#X    ",
" X&&&@X*=**==*==*&===##**%%X    ",
" XX#&&#&***==*==*&==#X#&&%%#X   ",
"X&&#X##&&*==*==*&&===#*#%%X##X  ",
"X&&XX&&&&==**==*&$**=##X%#X##X  ",
" XX X&#====*****&$**X##X&&#XX   ",
"     XX====****#&&XXXXXX&&X     ",
"       XX===#&XX#%%%X   XX      ",
"        X===XXXXX#%%#XX         ",
"        X&&&X  X##XXX%%X        ",
"         XXX  X$&&X X%%X        ",
"              X$&&X  XX         ",
"               XXX              ",
"                                ",
"                                "
};
