/* XPM */
static char *ezgif_com_gif_maker_2_1653643275[] = {
/* columns rows colors chars-per-pixel */
"22 24 157 2 ",
"   c #070103",
".  c #070506",
"X  c #090303",
"o  c #0D0B0C",
"O  c #0E0C0D",
"+  c #0F0D0E",
"@  c #110B0B",
"#  c #100A0C",
"$  c #120C0E",
"%  c #140E10",
"&  c #150F11",
"*  c #121011",
"=  c #131112",
"-  c #161010",
";  c #171113",
":  c #141213",
">  c #151314",
",  c #161415",
"<  c #181212",
"1  c #191313",
"2  c #181214",
"3  c #1A1414",
"4  c #1B1515",
"5  c #1A1416",
"6  c #1B1517",
"7  c #181617",
"8  c #1C1616",
"9  c #1D1717",
"0  c #1D1719",
"q  c #1B191A",
"w  c #1E1818",
"e  c #1F1919",
"r  c #1E181A",
"t  c #1F191B",
"y  c #1D1B1C",
"u  c #1F1D1E",
"i  c #201A1A",
"p  c #211B1B",
"a  c #211D1A",
"s  c #221E1B",
"d  c #241F1B",
"f  c #201A1C",
"g  c #211B1D",
"h  c #201C1D",
"j  c #221C1C",
"k  c #231D1D",
"l  c #231F1C",
"z  c #211D1E",
"x  c #221C1E",
"c  c #231D1F",
"v  c #231F1E",
"b  c #221E1F",
"n  c #241E1E",
"m  c #251F1F",
"M  c #25201C",
"N  c #24201D",
"B  c #26211D",
"V  c #25211E",
"C  c #24201F",
"Z  c #27221E",
"A  c #28201E",
"S  c #29211F",
"D  c #28231F",
"F  c #2F251C",
"G  c #30261D",
"H  c #31271E",
"J  c #32281F",
"K  c #211F20",
"L  c #231F20",
"P  c #241E20",
"I  c #251F21",
"U  c #222021",
"Y  c #232122",
"T  c #252120",
"R  c #262020",
"E  c #272121",
"W  c #262221",
"Q  c #262022",
"!  c #272123",
"~  c #242223",
"^  c #262425",
"/  c #272526",
"(  c #282222",
")  c #292323",
"_  c #282224",
"`  c #292325",
"'  c #2A2424",
"]  c #2A2426",
"[  c #2B2527",
"{  c #2C2626",
"}  c #2D2727",
"|  c #292728",
" . c #2D2729",
".. c #2A2829",
"X. c #2B292A",
"o. c #2E2828",
"O. c #2F2929",
"+. c #2C2A2B",
"@. c #2D2B2C",
"#. c #2F2D2E",
"$. c #312821",
"%. c #332920",
"&. c #322922",
"*. c #332A23",
"=. c #342A21",
"-. c #302A2A",
";. c #302A2C",
":. c #312B2D",
">. c #322C2C",
",. c #332D2F",
"<. c #302E2F",
"1. c #342E30",
"2. c #323031",
"3. c #363435",
"4. c #3A3436",
"5. c #3C3638",
"6. c #3F3939",
"7. c #3E383A",
"8. c #403A3C",
"9. c #443E3E",
"0. c #454344",
"q. c #585657",
"w. c #5E585A",
"e. c #5E5C5D",
"r. c #615B5D",
"t. c #636162",
"y. c #666062",
"u. c #6E6C6D",
"i. c #706A6C",
"p. c #817F80",
"a. c #868485",
"s. c #878586",
"d. c #8A8486",
"f. c #929091",
"g. c #989697",
"h. c #9A9899",
"j. c #ACA6A6",
"k. c #B5AFB1",
"l. c #B2B0B1",
"z. c #B6B0B0",
"x. c #B6B4B5",
"c. c #C3BDBF",
"v. c #C6C4C5",
"b. c #CDC7C7",
"n. c #D9D3D5",
"m. c #E3E1E2",
"M. c #E8E2E2",
"N. c #EFE9EB",
"B. c #EDEBEC",
"V. c #EFEDEE",
"C. c #F3EDEF",
"Z. c #F0EEEF",
"A. c #F7F5F6",
"S. c #F8F6F7",
"D. c #F9F7F8",
"F. c #FFFDFF",
"G. c #FFFEFF",
/* pixels */
"P P P P P P P P ;.2 0 ! g P r 6 u M j u B J ",
"P P P P P P P P 2 5.o.# ` 1.r ` u N j j D =.",
"P P P P P P P P r P ` g 5 ; P ! j N j j D =.",
"P P P P P P P P P g r ` 7.t g P M Z x j m =.",
"P P P P P P P P 5 8.$ ;.k.y.& ] j N N x Z %.",
"P P P P P P P P | - # d.F.i.& Q N Q x x n %.",
"P P P P P P P P 1.  w.N.C.4.P r n Z n j D $.",
"P P P P P P P P & r.n.F.c.x 1.P Z ( n j m $.",
"Q P Q P P x x x k.S.V.F.g.. 3.; n P P x Z J ",
"P Q P P x P x x h.s.s.m.u.: @.+.x U P u Z J ",
"Q P P P P P x P #., p.F.q.U + u P Q U u Z J ",
"P P P P P P P x : o v.Z.K U , | x Q x x N J ",
"x P P P P P P P #./ B.x.+ +.| U x Q x x Z J ",
"P x x P P P Q P q 2.D.f.U / U : x Q N u Z %.",
"x P P x P P Q P : t.A.e.: : / +.n Q x x Z J ",
"x x x P P Q P U * f.A.0.: / +.y x U x u Z J ",
"P P P P P P P P < b.M.i ( $ } D n P x x M F ",
"P P P P P P P P -.j.z.( >.4 i w P P x u M F ",
"P P P P P P P P X 5.9.# ' j n ( P P P g Z F ",
"P P P P P P P P 8 i 8 8 ( n i n P P P u Z J ",
"P P P P P P P P -.Z g } x n i r x U x N M J ",
"P P P P P P P P 8 < r Z 8 j ) Z x P U u Z J ",
"P P P P P P P P } D o.( Z r ( x P P x x Z %.",
"P P P P P P P P n < x 8 ) w ) Q x P U x D %."
};
