/* XPM */
static char *ezgif_com_gif_maker_3_1653643276[] = {
/* columns rows colors chars-per-pixel */
"21 24 231 2 ",
"   c #030000",
".  c #0D090A",
"X  c #0C0A0B",
"o  c #0F0B0C",
"O  c #0C0C0C",
"+  c #0F0D0E",
"@  c #110F10",
"#  c #130F10",
"$  c #161012",
"%  c #171113",
"&  c #141213",
"*  c #121413",
"=  c #151314",
"-  c #171314",
";  c #161415",
":  c #141615",
">  c #171516",
",  c #151716",
"<  c #161616",
"1  c #1A1114",
"2  c #191315",
"3  c #181415",
"4  c #191516",
"5  c #1A1416",
"6  c #1B1517",
"7  c #181617",
"8  c #1A1617",
"9  c #1D1417",
"0  c #191718",
"q  c #1B1718",
"w  c #1E1518",
"e  c #1C1618",
"r  c #1D1719",
"t  c #1F1619",
"y  c #191919",
"u  c #1A1819",
"i  c gray10",
"p  c #1B1B1B",
"a  c #1C1819",
"s  c #1D191A",
"d  c #1E181A",
"f  c #1F191B",
"g  c #1C1A1B",
"h  c #1E1A1B",
"j  c #1D1B1C",
"k  c #1F1B1C",
"l  c #1B1D1C",
"z  c gray11",
"x  c #1D1D1D",
"c  c #1E1C1D",
"v  c #1F1D1E",
"b  c #1D1F1E",
"n  c #1E1E1E",
"m  c #20171A",
"M  c #22171B",
"N  c #23171B",
"B  c #21181B",
"V  c #271919",
"C  c #25191B",
"Z  c #251B1A",
"A  c #261A1A",
"S  c #231E1B",
"D  c #241C1A",
"F  c #23181C",
"G  c #22191C",
"H  c #201A1C",
"J  c #211B1D",
"K  c #231A1D",
"L  c #24191D",
"P  c #25191D",
"I  c #241B1C",
"U  c #261A1C",
"Y  c #24191F",
"T  c #251A1E",
"R  c #241B1E",
"E  c #261B1F",
"W  c #271B1F",
"Q  c #201C1D",
"!  c #231D1D",
"~  c #211D1E",
"^  c #221C1E",
"/  c #231D1F",
"(  c #201E1F",
")  c #221E1F",
"_  c #261E1C",
"`  c #271F1D",
"'  c #251C1F",
"]  c #261D1E",
"[  c #271D1E",
"{  c #241E1E",
"}  c #251F1F",
"|  c #291D1D",
" . c #281E1F",
".. c #241B20",
"X. c #211C20",
"o. c #221C20",
"O. c #221D21",
"+. c #211F20",
"@. c #201E21",
"#. c #231F20",
"$. c #271C20",
"%. c #261D20",
"&. c #241E20",
"*. c #251F21",
"=. c #271E21",
"-. c #251F23",
";. c #281C20",
":. c #291E22",
">. c #281F22",
",. c #2A1E22",
"<. c #2A1F23",
"1. c #202020",
"2. c #232122",
"3. c #222023",
"4. c #212322",
"5. c #232323",
"6. c #242021",
"7. c #252122",
"8. c #262022",
"9. c #272123",
"0. c #242223",
"q. c #262223",
"w. c #252324",
"e. c #272324",
"r. c #232524",
"t. c gray14",
"y. c #262425",
"u. c #272526",
"i. c #272727",
"p. c #292023",
"a. c #2A2124",
"s. c #282224",
"d. c #292325",
"f. c #2B2225",
"g. c #2C2024",
"h. c #2C2125",
"j. c #2D2226",
"k. c #2C2326",
"l. c #2E2226",
"z. c #2F2327",
"x. c #282425",
"c. c #292526",
"v. c #2A2426",
"b. c #2B2527",
"n. c #2A2627",
"m. c #2D2427",
"M. c #2D2228",
"N. c #2E2528",
"B. c #2C2628",
"V. c #2D2729",
"C. c #272928",
"Z. c #2A2A2A",
"A. c #2D292A",
"S. c #2E282A",
"D. c #2C2A2B",
"F. c #2F2B2C",
"G. c #2F2D2E",
"H. c gray18",
"J. c #302222",
"K. c #302124",
"L. c #30272A",
"P. c #32292C",
"I. c #302A2C",
"U. c #332A2D",
"Y. c #342B2E",
"T. c #312D2E",
"R. c #332F30",
"E. c #362D30",
"W. c #342E30",
"Q. c #372E31",
"!. c #333132",
"~. c #363032",
"^. c #373334",
"/. c #363435",
"(. c #373938",
"). c #3F3B3C",
"_. c #3C3C3C",
"`. c #424041",
"'. c #444444",
"]. c #464646",
"[. c #4C4A4B",
"{. c #4F4D4E",
"}. c #4E504F",
"|. c #535152",
" X c #575354",
".X c #5C5A5B",
"XX c gray36",
"oX c #615D5E",
"OX c #636162",
"+X c #626262",
"@X c #727272",
"#X c gray45",
"$X c #767475",
"%X c #7C7A7B",
"&X c #868283",
"*X c #878586",
"=X c gray53",
"-X c #939192",
";X c #9A9697",
":X c #9B999A",
">X c #A09E9F",
",X c #A0A0A0",
"<X c #A4A0A1",
"1X c #A5A7A6",
"2X c #AEAAAB",
"3X c #B8B6B7",
"4X c #BDBFBE",
"5X c #CAC8C9",
"6X c gray80",
"7X c #CDCDCD",
"8X c #D3D1D2",
"9X c #D5D5D5",
"0X c #D7D5D6",
"qX c #E4E2E3",
"wX c gray91",
"eX c #E9E9E9",
"rX c #EAE8E9",
"tX c #EDEBEC",
"yX c #ECECEC",
"uX c #EFEDEE",
"iX c #F0EEEF",
"pX c #F2F4F3",
"aX c #F5F3F4",
"sX c #F4F4F4",
"dX c #F9F7F8",
"fX c #FAF8F9",
"gX c #FEFCFD",
"hX c #FFFDFE",
"jX c #FFFEFF",
"kX c #FEFFFF",
"lX c white",
/* pixels */
"J J J J J J J / l n y !.#.8.#.f X.#.X.{ { ",
"&.&./ / / / / J r.t.y < # #.B.Q.X.#./ { D ",
"8.8.&.8.&./ / / 4.t.Z.v.R.A.f k X.#./ { | ",
"8.8.8.&.&./ J / * n 4.= / k / F.#./ / { { ",
"8.&.&.&./ / / J < ].'.G.w.T.!.9 #.#.X.{ { ",
"/ / / &./ / / &.}.9XsX8X).  v.B.#.n X.{ | ",
"/ / / &.&.8.8.8.pXwX,XaX&X8.I.% #./ / { D ",
"/ / / &.8.d.d.v.4XXXO dX2X< f m.#./ / } | ",
"K.&.L ,.8.f f / C.< G.rX<X8.8 d.{ { W | ,.",
"L L ,.m.v.8.4.8., t._.jX;X- / r { { | { L ",
"N ,.j.s./ / n f b l @XjXoXo v.s.{ { { | | ",
",.j.,.r r / 8./ t.l 7X9Xt.f 8.B.{ { { &.{ ",
";.$.L J &.F.A.d.* #XjX%Xf A.f 8 { { | | { ",
"$.N L d.d.{ k r (.yX6X= / 8./ f { { &.| W ",
"<.J ;.j.&.- 8 t.1XrX+XX e.+.8.B.{ { &.| | ",
"K.N L M.{ 8 T. XjX=Xn {.^.A.9 v.{ { L { | ",
"q F.i k w.+ `.5XfX+X4.iX*X= i F.@.@./ / S ",
"k D.@.q #.5.$XjXtXuXqXjX.X# 5.= #.#.8.} ` ",
"i 4.#.@.k n |.>X[.:X3X-Xk f /.q #.J J L D ",
"#.k #.B.#.q q q . q F.8.= #.t.8.X.X.X.L D ",
"A.J J &.&.B.M.2 Q.2 f f B.f - L.&.,.,.| | ",
",.L &.$.r &.Y.I.L $.,.8 s.j.N L $.{ L L Z ",
"J &.d.,.J N N J r L.L N { I.<.r X.N L Z V ",
"B.j.&.,.Q.I.<.<.,.L.2 E.d.L <.E.M.M.j.J.J."
};
