/* XPM */
static char *ezgif_com_gif_maker_4_1653643276[] = {
/* columns rows colors chars-per-pixel */
"22 25 239 2 ",
"   c #010000",
".  c #020202",
"X  c #040203",
"o  c #070506",
"O  c #0F0A06",
"+  c #0D090A",
"@  c #0C0A0B",
"#  c #0E0A0B",
"$  c #0B0D0C",
"%  c #0F0D0E",
"&  c #0E0E0E",
"*  c #100C09",
"=  c #130F0C",
"-  c #130D0F",
";  c #18130F",
":  c #110F10",
">  c #111111",
",  c #121011",
"<  c #131210",
"1  c #131112",
"2  c #151112",
"3  c gray8",
"4  c #151515",
"5  c #161415",
"6  c #151716",
"7  c #161616",
"8  c #1A1511",
"9  c #191512",
"0  c #1A1613",
"q  c #1A1416",
"w  c #181617",
"e  c #191816",
"r  c #1A1917",
"t  c #161719",
"y  c #1B1718",
"u  c #1E1518",
"i  c #1C1618",
"p  c #1F1619",
"a  c #1A1819",
"s  c #1B191A",
"d  c gray10",
"f  c #1F1B18",
"g  c #1D191A",
"h  c #1F191B",
"j  c #1C1A1B",
"k  c #1E1D19",
"l  c #1E1D1B",
"z  c #1D1B1C",
"x  c #1F1B1C",
"c  c #1E1C1D",
"v  c #1F1E1C",
"b  c #1F1D1E",
"n  c #1D1F1E",
"m  c #20171A",
"M  c #231B19",
"N  c #21181B",
"B  c #201C19",
"V  c #211C19",
"C  c #221D19",
"Z  c #211D1A",
"A  c #221D1A",
"S  c #231E1A",
"D  c #241C19",
"F  c #251D1A",
"G  c #251D1B",
"H  c #22191C",
"J  c #231A1D",
"K  c #241B1E",
"L  c #211D1C",
"P  c #231D1D",
"I  c #201F1D",
"U  c #221E1D",
"Y  c #211D1E",
"T  c #221C1E",
"R  c #231D1F",
"E  c #201E1F",
"W  c #221E1F",
"Q  c #251C1D",
"!  c #251C1F",
"~  c #241E1E",
"^  c #2F1C1E",
"/  c #2B2117",
"(  c #2D2017",
")  c #2C2216",
"_  c #2E2216",
"`  c #232319",
"'  c #22221A",
"]  c #252219",
"[  c #262219",
"{  c #25201A",
"}  c #24211A",
"|  c #27201A",
" . c #21201C",
".. c #21201E",
"X. c #23221E",
"o. c #25201C",
"O. c #24201D",
"+. c #26211D",
"@. c #26231E",
"#. c #282119",
"$. c #28211B",
"%. c #28231D",
"&. c #2A231D",
"*. c #332316",
"=. c #392316",
"-. c #33211D",
";. c #33211F",
":. c #35231F",
">. c #37261F",
",. c #221D21",
"<. c #231D21",
"1. c #211F20",
"2. c #201E21",
"3. c #231F20",
"4. c #211F22",
"5. c #231E22",
"6. c #251C21",
"7. c #261D20",
"8. c #241E20",
"9. c #251F21",
"0. c #271E21",
"q. c #261D22",
"w. c #241E22",
"e. c #211F24",
"r. c #211E25",
"t. c #281F22",
"y. c #311E20",
"u. c #202020",
"i. c gray13",
"p. c #232220",
"a. c #232122",
"s. c #222023",
"d. c #222222",
"f. c #232323",
"g. c #242021",
"h. c #272320",
"j. c #262022",
"k. c #272123",
"l. c #242223",
"z. c #262223",
"x. c #222025",
"c. c #252324",
"v. c #272324",
"b. c gray14",
"n. c #272526",
"m. c #272727",
"M. c #292023",
"N. c #292420",
"B. c #282421",
"V. c #2A2521",
"C. c #2B2622",
"Z. c #2A2623",
"A. c #2A2124",
"S. c #2B2225",
"D. c #2C2326",
"F. c #2B2724",
"G. c #2C2825",
"H. c #2E2A27",
"J. c #292728",
"K. c #2B2728",
"L. c #2C2628",
"P. c #2F2629",
"I. c #282828",
"U. c gray16",
"Y. c #292B2A",
"T. c gray17",
"R. c #2C2B29",
"E. c #2E282A",
"W. c #2C2A2B",
"Q. c #2A2C2B",
"!. c #302021",
"~. c #332121",
"^. c #322D29",
"/. c #322E2B",
"(. c #32292C",
"). c #322C2E",
"_. c #302E2F",
"`. c #322E2F",
"'. c #37322E",
"]. c #2F3130",
"[. c #323031",
"{. c #3B3632",
"}. c #393738",
"|. c #3B3738",
" X c gray22",
".X c #3D3B3C",
"XX c #3C3C3C",
"oX c #3C3D3F",
"OX c #433A3D",
"+X c #443B3E",
"@X c #413F40",
"#X c gray26",
"$X c gray31",
"%X c #514D4E",
"&X c #504E4F",
"*X c #635F60",
"=X c #646263",
"-X c #666465",
";X c #737172",
":X c #7B7B7B",
">X c #7C7A7B",
",X c #7C7C7C",
"<X c #8D8B8C",
"1X c #8B8C8E",
"2X c #969495",
"3X c #9E9C9D",
"4X c #9F9D9E",
"5X c #A5A3A4",
"6X c #ABACAE",
"7X c gray68",
"8X c #AEACAD",
"9X c #AFADAE",
"0X c #B3B1B2",
"qX c #B7B5B6",
"wX c gray76",
"eX c #C9CBCA",
"rX c #CFCDCE",
"tX c #D2D2D2",
"yX c gray83",
"uX c #D7D9D8",
"iX c #DAD8D9",
"pX c #DBD9DA",
"aX c #DFDFDF",
"sX c #DDDEE0",
"dX c #E7E5E6",
"fX c #ECEAEB",
"gX c #EDEBEC",
"hX c gray93",
"jX c #EFEFEF",
"kX c #F4F2F3",
"lX c #F5F3F4",
"zX c #F3F4F6",
"xX c #F6F4F5",
"cX c #F7F5F6",
"vX c #F6F6F6",
"bX c #F5F6F8",
"nX c #FCFAFB",
"mX c #FFFEFF",
"MX c #FEFFFF",
/* pixels */
"` ` ` } } #.#.#.; N.^.} O.F.N.8 d.X.X.%.%.%.",
"` ` ` ` F #.#.#.{.C O Q %.N.O.'.I I ....O.#.",
"I I b T J Q J J * H.H.H.= O.0 8 b I I C } F ",
"2.2.,.,.q.7.w.q.h.O.k N.F.^.H.F.b b k T C F ",
"s.2.s.,.w.w.q.q.e ..R.e b e k < r.2.2.T Q F ",
"2.s.s.,.w.w.t.w.F.6 6 s.Q.s...m.l.e.2.,.O.Q ",
"I I I T Q Q Q Q b.d XXtXhXwX#X3 l.e.s.,.,.Q ",
"k k k k C M M M oXsXzXbX6XMX1Xt e.e.e.,.T Q ",
"a.Q w.w.w.a.Q s.XX4X9X}.[.xX<X5 w.w.w.Q T T ",
"Q s.Q Q Q Q a.Q z s.X   2XMX=X: c.t.w.Q T ,.",
"a.w.Q a.w.Q w.w.1 l.&X>XxX0Xc.T N.t.w.Q Q T ",
"w.Q w.a.Q s.Q a.b =XkXMXMX$X@ T.a.Q w.w.a.w.",
"Q a.w.Q Q s.Q Q ,.@X3X5XfX-Xy a.w.w.w.w.Q a.",
"s.Q Q a.w.Q a.w.T d : c.cXqXz ,.N.w.~ N.a.a.",
"Q a.w.w.a.w.w.,.T m.& t dXiXd a.w.w.a.w.t.N.",
"a.Q s.Q Q a.Q ,.k s.c.T 8XpX_.b N.w.t.w.w.t.",
"w.N.t.H J t.t.m b T.].$ uXeX6 Q.T T Q a.w.Q ",
"J 7.t.t.J 7.D.(.T.  & $XvX6Xs.< ,.T ,.Q Q a.",
"J J t.t.J m P.+XyX,X,XsXhX X& I.Q Q T a.Q w.",
"t.H J D.7.m t.+XfXMXnXrX;Xo T.b s.T s.Q s.w.",
"D.H J D.t.m J (.+ %X*XL.2 s |.a.T s.T Q Q a.",
"D.J H t.D.J m J c.w.N s _.T * w.Q Q ,.w.a.Q ",
"t.J J ! t.t.q.m q E.m : Q L.t.w.T s.Q a.w.Q ",
"J ! ! J J t.D.7.N.P.y _.E.q a.Q T Q T s.Q w.",
">.:.-.-.y.~.y.y.y.!.!.!.!.!.!.!._ #._ _ *.=."
};
