/* XPM */
static char *ezgif_com_gif_maker_5_1653643276[] = {
/* columns rows colors chars-per-pixel */
"22 25 245 2 ",
"   c black",
".  c #010101",
"X  c #070001",
"o  c #0B0B0B",
"O  c #0F090B",
"+  c #10070A",
"@  c #11080B",
"#  c #160C0B",
"$  c #180E0D",
"%  c #13100B",
"&  c #16130E",
"*  c #13140E",
"=  c #140E10",
"-  c #111111",
";  c #131313",
":  c #151112",
">  c #171113",
",  c #121214",
"<  c #151515",
"1  c #161415",
"2  c #141416",
"3  c #161616",
"4  c #1A1011",
"5  c #181214",
"6  c #1B1215",
"7  c #1C1316",
"8  c #1A1617",
"9  c #1B1813",
"0  c #1E1916",
"q  c #1F1A17",
"w  c #1B1C16",
"e  c #191718",
"r  c #1E1518",
"t  c #1F1619",
"y  c #191919",
"u  c #1A1819",
"i  c #1B191A",
"p  c #1D191A",
"a  c #1E181A",
"s  c #1F191B",
"d  c #1C1A1B",
"f  c #1E1A1B",
"g  c #1E1F19",
"h  c #1A1A1C",
"j  c #1D1B1C",
"k  c #1F1B1C",
"l  c gray11",
"z  c #1D1D1D",
"x  c #1F1D1E",
"c  c #1E1E1E",
"v  c #201615",
"b  c #271C16",
"n  c #291C13",
"m  c #281E15",
"M  c #281D17",
"N  c #211718",
"B  c #20171A",
"V  c #231918",
"C  c #21181B",
"Z  c #23191A",
"A  c #241A19",
"S  c #241A1B",
"D  c #271B1B",
"F  c #231E1B",
"G  c #271E19",
"H  c #261F19",
"J  c #251D1B",
"K  c #261E1B",
"L  c #22191C",
"P  c #231A1D",
"I  c #231A1F",
"U  c #241B1C",
"Y  c #241B1E",
"T  c #201C1D",
"R  c #211D1E",
"E  c #221C1E",
"W  c #231D1F",
"Q  c #231F1E",
"!  c #251C1D",
"~  c #271D1C",
"^  c #261C1D",
"/  c #241F1C",
"(  c #261E1C",
")  c #271F1D",
"_  c #251C1F",
"`  c #261D1E",
"'  c #271D1E",
"]  c #271E1F",
"[  c #291B1A",
"{  c #281C1C",
"}  c #281C1E",
"|  c #341F1A",
" . c #272018",
".. c #27201A",
"X. c #25201D",
"o. c #25221D",
"O. c #26211E",
"+. c #27221F",
"@. c #28211B",
"#. c #29221A",
"$. c #2A231B",
"%. c #29221C",
"&. c #2A231D",
"*. c #28201E",
"=. c #29211F",
"-. c #2B241C",
";. c #2B241E",
":. c #2C251D",
">. c #312515",
",. c #302815",
"<. c #312318",
"1. c #33221A",
"2. c #34211D",
"3. c #34231C",
"4. c #34221E",
"5. c #3A231D",
"6. c #241B20",
"7. c #211F20",
"8. c #231F20",
"9. c #211F22",
"0. c #231E22",
"q. c #251C21",
"w. c #271C20",
"e. c #261D20",
"r. c #241E20",
"t. c #271E21",
"y. c #261D22",
"u. c #251F23",
"i. c #271E23",
"p. c #201F24",
"a. c #211F24",
"s. c #231E24",
"d. c #221F26",
"f. c #281F20",
"g. c #281F22",
"h. c #2F1F22",
"j. c #281F24",
"k. c #311E20",
"l. c #222021",
"z. c #232122",
"x. c #222023",
"c. c #222222",
"v. c #242223",
"b. c #252620",
"n. c #262721",
"m. c #212025",
"M. c #222025",
"N. c #212026",
"B. c #252324",
"V. c gray14",
"C. c #252525",
"Z. c #272526",
"A. c gray15",
"S. c #292021",
"D. c #292023",
"F. c #2D2322",
"G. c #2A2124",
"H. c #282224",
"J. c #2B2225",
"K. c #2C2326",
"L. c #292526",
"P. c #2E2425",
"I. c #2F2725",
"U. c #2E2526",
"Y. c #2F2627",
"T. c #272822",
"R. c #292A24",
"E. c #2A2B25",
"W. c #2C2924",
"Q. c #2B2728",
"!. c #2D2429",
"~. c #2E252A",
"^. c #28282A",
"/. c gray17",
"(. c #2F292B",
"). c #2C2C2C",
"_. c gray18",
"`. c #2F2F2F",
"'. c #342021",
"]. c #322127",
"[. c #342125",
"{. c #302923",
"}. c #312A22",
"|. c #322829",
" X c #31282B",
".X c #302D28",
"XX c #332E2B",
"oX c #302A2C",
"OX c #332A2D",
"+X c #352B2C",
"@X c #392F2E",
"#X c #362D30",
"$X c #382F32",
"%X c #313131",
"&X c #3D3437",
"*X c #3E3C3D",
"=X c #3F3F3F",
"-X c #422B23",
";X c #444041",
":X c gray29",
">X c #4B4B4D",
",X c #505050",
"<X c #515153",
"1X c gray33",
"2X c gray34",
"3X c #6C6C6C",
"4X c gray45",
"5X c #787475",
"6X c #7B7B7D",
"7X c gray49",
"8X c #868686",
"9X c #888284",
"0X c #898989",
"qX c gray54",
"wX c #909090",
"eX c #9D9799",
"rX c #989898",
"tX c #9D9D9D",
"yX c #A5A5A5",
"uX c #A8A4A5",
"iX c #A9A7A8",
"pX c #A9A9A9",
"aX c #ADA9AA",
"sX c #B7B7B7",
"dX c gray76",
"fX c #C6C4C5",
"gX c #C9C7C8",
"hX c gray79",
"jX c #D2D2D2",
"kX c #DEDCDD",
"lX c #DFDFDF",
"zX c #E2E2E2",
"xX c #E4E4E4",
"cX c gray90",
"vX c #E6E6E6",
"bX c #E9E9E9",
"nX c #ECEAEB",
"mX c #ECECEC",
"MX c gray94",
"NX c #F5F3F4",
"BX c #F4F4F4",
"VX c gray96",
"CX c #FDFDFD",
"ZX c #FFFCFD",
"AX c white",
/* pixels */
"}.&. .$.&.$.$.:.w R.o.T.* E.g T. . .H b b n ",
"}.&.H &.&.$.H &..X& & .X9 R.W.o.] o.] H H b ",
"Y.S.U ] S.] ] S.] X.0 .Xo.] A g M.x.v.R R ] ",
"~.y.6.y.j.y.y.j.# @XA # { F.0 A N.a.8.a.o.R ",
"~.y.P y.u.y.6.j.S N +XN 4 Y.|.] M.M.p.a.8.y.",
"~.y.P y.u.y.y.g.] = eX9X4 5 (.p M.M.a.8.y.6.",
"Y.] A ] g.] ] y.: ;XAXuXp R k k y.y.] ] ] S ",
"Y.] H ] &.} ] &., 6XAX<X2 >Xh ^.y.y.] } { [ ",
"S.g.g.g.K.K.G.y.V.yXMX`.V.AXqX- 8.8.y.X.y.y.",
"K.g.g.y.g.u.U P ^.AXsX2 7XvX4Xc 8.8.R y.] ] ",
"K.j.y.] 6.U P t 2XmX8Xo jXzXy c 8.8.] v.y.6.",
"K.S.y.U 6.U N t pXvX).=XAXqX/.V.8.8.R R ] U ",
"K.g.] U y.g.] ] hXlX,XyXAX:Xg 2 8.8.y.] y.] ",
"G.y.U 6.y.G.S.G.bXAXxXAXAX<X2 ).8.8.R y.] ] ",
"G.y.6.U y.S.G.G.wXdXtXVXrX. ).v.8.8.y.8.U 6.",
"K.g.6.P y.g.S.S.y . 3XBX3X- %Xy 8.8.R ] y.y.",
"K.y.U y.y.P ] g.8.k iXNX*Xh p v.y.y.y.] H ] ",
"K.g.] y.y.] ] S.8.y fXlXx.k v.V.y.] 6.] ] H ",
"K.} ] y.y.P P G.e V.bXgX2 y v.x.y.y.] ] H ] ",
"K.y.] y.y.P y.g.k Q.aX5X8 P L.p y.] ] U ] A ",
"Y.y.] y.g.P ] g.G.R (.O R 8.(.t 6.] y.U A ] ",
"G.y.P ] y.] ] S.P G.7 @ #Xt y.] y.y.] ] ] H ",
"K.y.] y.y.P P G.C y.&X$X|.7 t y.y.y.R ] H o.",
"Y.y.] g.y.P y.g.OXX G.P @ G.g.] y.] ] ] ] A ",
"-X5.| 1.k.k.k.].[.[.[.[.[.[.[.[.2.2.1.1.>.,."
};
