/* XPM */
static char *ezgif_com_gif_maker_6_1653643276[] = {
/* columns rows colors chars-per-pixel */
"22 24 77 1 ",
"  c #050202",
". c #090406",
"X c #0D0709",
"o c #0E0A0B",
"O c #110E0D",
"+ c #18130F",
"@ c #140F11",
"# c #180E12",
"$ c #151213",
"% c #1A1415",
"& c #1F1A16",
"* c #1C1719",
"= c #1E191A",
"- c #201B17",
"; c #21161A",
": c #231D1D",
"> c #242017",
", c #22211D",
"< c #28241C",
"1 c #251E22",
"2 c #291F23",
"3 c #1F2222",
"4 c #242123",
"5 c #2A2324",
"6 c #272926",
"7 c #2F2A26",
"8 c #2D2729",
"9 c #2D292A",
"0 c #352323",
"q c #3D2427",
"w c #302428",
"e c #322B2C",
"r c #352E31",
"t c #333031",
"y c #393033",
"u c #3B3539",
"i c #3C3B3B",
"p c #403A3C",
"a c #443E40",
"s c #464646",
"d c #494347",
"f c #4B4549",
"g c #555555",
"h c #5C5658",
"j c #5E5E5E",
"k c #676566",
"l c #726C6E",
"z c #6F7170",
"x c #747071",
"c c #797778",
"v c #807C7E",
"b c #878183",
"n c #8B8587",
"m c #8C8688",
"M c gray57",
"N c #999395",
"B c #9E989A",
"V c #A2A4A3",
"C c #A9A7A8",
"Z c #AAACAB",
"A c #B3B3B3",
"S c #BFBBBC",
"D c #C2BEBF",
"F c #C3BDC1",
"G c #C7C5C6",
"H c #D0CECF",
"J c #CED0CF",
"K c #D2D0D1",
"L c #DFDFDF",
"P c #E2DEDF",
"I c #E5DFE3",
"U c #E4E2E3",
"Y c #EDE7E9",
"T c #EAEAEA",
"R c #F4EEF0",
"E c gray96",
"W c #FFFEFF",
/* pixels */
">>>>>>>>>%:e-+e>%::12p",
":>:>>>,:7-<+-7->*:,1;0",
":::,1::1+<:+<7-,1113;<",
"41111111oe-77%e>1244:<",
"111111118*%X +;4121336",
"111211125eNvbB5:222466",
"1:::::,:#NWRWYp*111449",
":,,,,::,4IFdfu$5144315",
"2:;:122;sEM 35:%:4=444",
":12222:;xWgOiO19113345",
"12252:1;ZWj4%%r%13:345",
";222:128JETD3:r$1:3344",
"222:::8rWAAWx%=1113:,5",
"2::;:2weVjXJS$*513:3,<",
"2:1;1255 t$UIo1511,,><",
"2112551=334HG$4=14,,<<",
"w:%81 rX6OgWv$e:331315",
"*551:tml$iGLs6*4,=3125",
"8511%rFWTTWc.9=5,,:151",
"5%1r5XhnACk%=4y%,,3115",
"511%8%1 O4 oa#e;;11218",
"8=1%8199998=y#*w:11222",
"=$r9rXO11#2;22;2:12222",
"525.198:8;1222r;::2222"
};
