/* XPM */
static char *ezgif_com_gif_maker_7_1653643276[] = {
/* columns rows colors chars-per-pixel */
"22 24 69 1 ",
"  c #040404",
". c #0B0608",
"X c #0D0B0C",
"o c #130C0D",
"O c #19140E",
"+ c #130D11",
"@ c #190E12",
"# c #141414",
"$ c #1C1415",
"% c #1D1814",
"& c #1D1619",
"* c #1D1B1C",
"= c #211A16",
"- c #22171A",
"; c #251D1C",
": c #2A1A1D",
"> c #24211C",
", c #29221E",
"< c #251D21",
"1 c #2A1E22",
"2 c #301F29",
"3 c #242224",
"4 c #2B2424",
"5 c #2F2B22",
"6 c #2D252A",
"7 c #272928",
"8 c #2C2929",
"9 c #342427",
"0 c #302529",
"q c #322A2C",
"w c #342E31",
"e c #3C2B33",
"r c #363435",
"t c #3A3336",
"y c #3E3A37",
"u c #3B3539",
"i c #3E3E3E",
"p c #463D42",
"a c #434343",
"s c #494347",
"d c #555354",
"f c #5B5D5C",
"g c gray39",
"h c #6B6A6A",
"j c #727272",
"k c #7B7277",
"l c #837E7B",
"z c gray51",
"x c #8A8582",
"c c #969494",
"v c #9D9D9D",
"b c #AEA9A6",
"n c #A9A7A8",
"m c #ABAAAB",
"M c #B2A9AE",
"N c #B4AEB2",
"B c #B6B2B5",
"V c #BBBBBB",
"C c #C6BFBE",
"Z c gray76",
"A c gray80",
"S c #D5CCD1",
"D c #D4D6D5",
"F c #DADADA",
"G c #E4E4E4",
"H c #EAEAEA",
"J c #F4F4F4",
"K c #FBF6F3",
"L c #FDFDFD",
/* pixels */
";;;;1<<<,%,5>>,%;;;;=,",
";;;;;<1<>>%%,>O,;;;;,:",
";=;;;<<3=80;35,>;;;:=;",
";;;,;<11ro;u&.>q;;;;,;",
"=,;,;;<<<6*$6r6;-;;;;;",
":=;=;:1<#w&uNBs+<<<<<<",
",=:,:<11uorCLc3q<;;<<<",
"=,,;,;<3$;bKl$%%<<<<<<",
";=:$6$q<#gLc*33**>;><<",
";=4=1-6*#HF7X3*7;>;;33",
";O4;:;1@jLz8r*3#>;*3*<",
";=4;;<;<ZJAHAd7**;;<<<",
",=,:;3&pHLZmJV#7>>;;<<",
";;,;:1$kLc8 AF##=>;<3<",
",,==43&MGr#aHm37>**3;<",
",9==0<&DG7 hLhX*;;;<<<",
",@q&2<&ZG7XvLt*61<<<<<",
",%q*<<&xLfiGB3X;<<<<<<",
";*7*<3&uDHHLdo$q<<<<<<",
">>*<3*3#amnh4<6*<<<<<<",
"3*&23*6*X7*.644$4<:3<<",
"1&@2<&448$4t-$11;;;:-<",
";-<-11;43&-<@09@;,;:<<",
"19e12e:13ewot6-e444042"
};
