/* XPM */
static char *ezgif_com_gif_maker_8_1653643276[] = {
/* columns rows colors chars-per-pixel */
"21 24 199 2 ",
"   c #050304",
".  c #070506",
"X  c #080607",
"o  c #090708",
"O  c #0C0608",
"+  c #0B090A",
"@  c #0E080A",
"#  c #100A0C",
"$  c #110B0D",
"%  c #130D0F",
"&  c #100E0F",
"*  c #110F10",
"=  c #140E10",
"-  c #121011",
";  c #131112",
":  c #161012",
">  c #171113",
",  c #151314",
"<  c #161415",
"1  c #171516",
"2  c #181214",
"3  c #191315",
"4  c #1A1416",
"5  c #181617",
"6  c #191718",
"7  c #1C1618",
"8  c #1D1719",
"9  c #1B191A",
"0  c #1E181A",
"q  c #1F191B",
"w  c #1C1A1B",
"e  c #1D1B1C",
"r  c #1F1B1C",
"t  c #1D181E",
"y  c #1E1C1D",
"u  c #1F1D1E",
"i  c #231917",
"p  c #241917",
"a  c #23171B",
"s  c #211B1B",
"d  c #241A18",
"f  c #231E1A",
"g  c #221F1A",
"h  c #241C19",
"j  c #23181C",
"k  c #201A1C",
"l  c #211B1D",
"z  c #251A1E",
"x  c #201C1D",
"c  c #221C1C",
"v  c #231D1D",
"b  c #231F1C",
"n  c #221C1E",
"m  c #231D1F",
"M  c #231F1E",
"N  c #241F1C",
"B  c #261E1C",
"V  c #251C1F",
"C  c #261D1E",
"Z  c #241E1E",
"A  c #251F1F",
"S  c #25201A",
"D  c #24211A",
"F  c #26211B",
"G  c #21201C",
"H  c #21201E",
"J  c #28211B",
"K  c #2A211C",
"L  c #2B221D",
"P  c #2C211D",
"I  c #1F1A20",
"U  c #241720",
"Y  c #231820",
"T  c #241921",
"R  c #251B23",
"E  c #211F20",
"W  c #231F20",
"Q  c #211C23",
"!  c #231C23",
"~  c #211F22",
"^  c #231E22",
"/  c #271C20",
"(  c #261D20",
")  c #241E20",
"_  c #251F21",
"`  c #261D22",
"'  c #241E22",
"]  c #251F23",
"[  c #231E25",
"{  c #241D24",
"}  c #251E26",
"|  c #261F26",
" . c #281D23",
".. c #291C25",
"X. c #2A1F25",
"o. c #281C26",
"O. c #291C26",
"+. c #291E26",
"@. c #291F27",
"#. c #2A1F27",
"$. c #291F28",
"%. c #2A1E28",
"&. c #1D2120",
"*. c #1F2120",
"=. c #202020",
"-. c #222021",
";. c #232122",
":. c #242021",
">. c #262022",
",. c #272123",
"<. c #242223",
"1. c #262125",
"2. c #252324",
"3. c #262127",
"4. c #272226",
"5. c #262425",
"6. c #272526",
"7. c #282224",
"8. c #292325",
"9. c #2B2225",
"0. c #2D2027",
"q. c #2A2426",
"w. c #2B2527",
"e. c #282627",
"r. c #272028",
"t. c #272228",
"y. c #292728",
"u. c #2C2628",
"i. c #2D2729",
"p. c #2B292A",
"a. c #2E282A",
"s. c #2F292B",
"d. c #2C2A2B",
"f. c #2D2B2C",
"g. c #2E2C2D",
"h. c #2F2D2E",
"j. c #32272B",
"k. c #302A2C",
"l. c #312B2D",
"z. c #322C2E",
"x. c #332D2F",
"c. c #302E2F",
"v. c #312F30",
"b. c #382D31",
"n. c #353334",
"m. c #373536",
"M. c #393335",
"N. c #3D3135",
"B. c #393738",
"V. c #3D3739",
"C. c #464042",
"Z. c #454344",
"A. c #464445",
"S. c #4A4849",
"D. c #565455",
"F. c #595355",
"G. c #605E5F",
"H. c #656364",
"J. c #696365",
"K. c #696768",
"L. c #6A6869",
"P. c #716F70",
"I. c #737172",
"U. c #767072",
"Y. c #7B7577",
"T. c #7F797B",
"R. c #7F7D7E",
"E. c #807A7C",
"W. c #827C7E",
"Q. c #929091",
"!. c #939192",
"~. c #949293",
"^. c #969495",
"/. c #9A9899",
"(. c #9E9C9D",
"). c #A49EA0",
"_. c #A9A7A8",
"`. c #AEACAD",
"'. c #AFADAE",
"]. c #BBB9BA",
"[. c #C6C4C5",
"{. c #D1CFD0",
"}. c #D3D1D2",
"|. c #D7D5D6",
" X c #DAD8D9",
".X c #E3DDDF",
"XX c #E3E1E2",
"oX c #E7E5E6",
"OX c #E8E6E7",
"+X c #EEECED",
"@X c #EFEDEE",
"#X c #F0EAEC",
"$X c #F2F0F1",
"%X c #F9F7F8",
"&X c #FDF7F9",
"*X c #FAF8F9",
"=X c #FDFBFC",
"-X c #FFFCFE",
";X c #FFFEFF",
/* pixels */
"D g r r Q t.9.;.9 5 ;.p.5.e 9 ;.*.^ I H G ",
"D g r I Q r.3.;.p.p.;.1 1 ;.g.<.^ *.;.=.G ",
"f f Y Q { 3.] A 1 w e.>.5 ;.5.1 ^ m m H G ",
"J g m 3.r.{ ^ >.d.;.5.g.p.5.5.=.^ ;.H m G ",
"J f ( $.$.(  .9.1 1 .   ; r e 5.] A z A A ",
"K p z 9.$.Y ..j.D.Q./.R.I.S.e ;.]  .A z f ",
"P p j ..o.Y ..b.$X;X;X;X;X_.v.e.( z C C B ",
"P p j ..o.U %.N.}.R.;.I.*X'.e w ]  ./ C B ",
">.j >.>.w j 9.q.n.. @ (.;XA., <.;.m A A A ",
"e.>.m >.q.>.2 O ; ;.m.oX].1 c.e m ;.] m ] ",
"m >.A >.e.a V.W.p.. L.;XH.e 9 e m H m ] z ",
"m m j q.e.% F..X XL.'.XXe *.; g.;.m A m A ",
"e.,.5  .x.8 l.E.;XOX+X|.A.v.m.@ H >.m A A ",
"m k.,.7 q.e.5 2 + Q.;X*X=X%X^.e m ] ] m z ",
"5 q.d.j w 9.q.w 9 ^.+XZ.H.^.Z.1 m H ^ ( ] ",
",.1 j 8.m j 9.d.e [.{.9 * . ;.<.^ m m A A ",
"A F A A A A j j >.;X).% d.,.j 9.=.=.m ^ m ",
"A A A A m g g r C.&XE.O  .2 q.] H =.A A A ",
"A z A A A m g j U.#XJ.j k.# l.3 ^ A z ] ( ",
"g A m A A m g m M.Y.d.3 k.7 x.g A ] / / ( ",
"j g f A A A m g # m 2 : 9.,.8 A C C z ] ( ",
"g m A A A A A A e.m l.>.9.k.% ,./ ] A m ] ",
"j m m m A A A m j 1 A w >.u.j d.] A =.=.e ",
"w g z g A A A A >.q.j m 3.r w j ^ m ;.*.*."
};
