/* XPM */
static char *ezgif_com_gif_maker_9_1653643276[] = {
/* columns rows colors chars-per-pixel */
"21 24 208 2 ",
"   c #020202",
".  c gray1",
"X  c #070707",
"o  c #080405",
"O  c #080607",
"+  c #090708",
"@  c #0D0709",
"#  c #090909",
"$  c #0B0B0B",
"%  c #0D090A",
"&  c #0E0C0D",
"*  c #0F0D0E",
"=  c #110D0E",
"-  c #130D0F",
";  c #140E10",
":  c #150F11",
">  c #151112",
",  c #161012",
"<  c #171113",
"1  c #141213",
"2  c #161213",
"3  c #151314",
"4  c #171314",
"5  c #151515",
"6  c #171516",
"7  c #161616",
"8  c gray9",
"9  c #181214",
"0  c #191315",
"q  c #1D1216",
"w  c #191516",
"e  c #1A1416",
"r  c #1B1517",
"t  c #181617",
"y  c #1A1617",
"u  c #191718",
"i  c #1B1718",
"p  c #1C1618",
"a  c #1D1719",
"s  c #181818",
"d  c #1A1819",
"f  c #181A19",
"g  c gray10",
"h  c #1C1819",
"j  c #1D191A",
"k  c #1E181A",
"l  c #1F191B",
"z  c #1E1A1B",
"x  c #1A1C1B",
"c  c #1D1B1C",
"v  c #1F1B1C",
"b  c gray11",
"n  c #1D1D1D",
"m  c #1E1C1D",
"M  c #1F1D1E",
"N  c #1D1F1E",
"B  c #1E1E1E",
"V  c gray12",
"C  c #201519",
"Z  c #241F1B",
"A  c #23181C",
"S  c #201A1C",
"D  c #211B1D",
"F  c #251A1E",
"G  c #261B1F",
"H  c #201C1D",
"J  c #231D1D",
"K  c #211D1E",
"L  c #221C1E",
"P  c #231D1F",
"I  c #201E1F",
"U  c #231F1E",
"Y  c #221E1F",
"T  c #241F1C",
"R  c #241E1E",
"E  c #251F1F",
"W  c #271E1F",
"Q  c #211F20",
"!  c #231F20",
"~  c #271C20",
"^  c #241E20",
"/  c #251F21",
"(  c #281D21",
")  c #291E22",
"_  c #2A1F23",
"`  c #202020",
"'  c gray13",
"]  c #222021",
"[  c #232122",
"{  c #222222",
"}  c #232323",
"|  c #242021",
" . c #252122",
".. c #262022",
"X. c #272123",
"o. c #242223",
"O. c #262223",
"+. c #252324",
"@. c #272324",
"#. c gray14",
"$. c #252525",
"%. c #262425",
"&. c #272526",
"*. c #252726",
"=. c gray15",
"-. c #282224",
";. c #292325",
":. c #2E2327",
">. c #282425",
",. c #292526",
"<. c #2A2426",
"1. c #2B2527",
"2. c #282627",
"3. c #262827",
"4. c #292728",
"5. c #2B2728",
"6. c #2C2628",
"7. c #2D2729",
"8. c #292B2A",
"9. c #2A2A2A",
"0. c #2D292A",
"q. c #2E282A",
"w. c #2F292B",
"e. c #2C2A2B",
"r. c #2E2A2B",
"t. c #2A2C2B",
"y. c #2D2B2C",
"u. c #2F2B2C",
"i. c #2F2D2E",
"p. c #302529",
"a. c #31262A",
"s. c #32272B",
"d. c #302A2C",
"f. c #312B2D",
"g. c #302C2D",
"h. c #322C2E",
"j. c #302E2F",
"k. c #2E302F",
"l. c #332F30",
"z. c #342E30",
"x. c #352F31",
"c. c #323031",
"v. c #343031",
"b. c #363233",
"n. c #363435",
"m. c gray21",
"M. c #3B3738",
"N. c #3C3638",
"B. c #3B393A",
"V. c #3C3839",
"C. c #424041",
"Z. c gray26",
"A. c #484647",
"S. c #4D4B4C",
"D. c gray32",
"F. c #5A5657",
"G. c #585A59",
"H. c #5B595A",
"J. c #5C5E5D",
"K. c #5F6160",
"L. c #626061",
"P. c #676566",
"I. c #6B696A",
"U. c #6D6D6D",
"Y. c #746E70",
"T. c #756F71",
"R. c #777576",
"E. c #7E7A7B",
"W. c #8B8587",
"Q. c #908E8F",
"!. c #979797",
"~. c #989697",
"^. c #A19FA0",
"/. c gray65",
"(. c #AAA6A7",
"). c #A9ABAA",
"_. c #AEACAD",
"`. c #AEAEAE",
"'. c #AEB0AF",
"]. c #B4B2B3",
"[. c #B4B4B4",
"{. c #BCBCBC",
"}. c #C0BEBF",
"|. c #C4C2C3",
" X c #D2D2D2",
".X c gray83",
"XX c #D7D5D6",
"oX c #DDDBDC",
"OX c #DFDFDF",
"+X c #E2E4E3",
"@X c #E7E7E7",
"#X c #E6E8E7",
"$X c #EAE8E9",
"%X c #EBE9EA",
"&X c gray92",
"*X c #F2ECEE",
"=X c #F0EEEF",
"-X c gray94",
";X c gray96",
":X c #F6F4F5",
">X c #F6F6F6",
",X c #FAF8F9",
"<X c #FBF9FA",
"1X c gray98",
"2X c #FFFDFF",
"3X c #FFFEFF",
"4X c #FEFFFF",
"5X c white",
/* pixels */
"#.@.| _ P ^ | ' P y.& #.y.' u @.J J J Z Z ",
"' | ^ ~ G L ^ Q ' y.@.g 6 e.4.I J J J Z Z ",
"' | ^ G G P P n g ' 2.v e.! + @.J J P Z Z ",
"' | ^ _ _ | Q ` | * n v I I #.2.J J P Z Z ",
"' | ^ _ _ ^ P n ! R.|._.i.* C.1 J J J Z Z ",
"n P P ~ G P L g i.<X=X<X^.7 1 v J J J Z Z ",
"n P P ~ ~ L l g L.2XA._.XXl.5 n.P J P Z Z ",
"n ! ^ X._ P P x P.2XH.$X[.* n.7 Z P Z E Z ",
"n p f.C :.l | g G.;XOX2XF.% q.l Z P P T T ",
"' L L _ G P v.# i.>X#XQ.c.n x.l E P E T X.",
"#.P < 6.q P g.# J.1X;XB.% P l 0 P E P W W ",
"' P e s.G ^ < m.+XOX2XI.l | < f.W T P X.E ",
"` P P P _ | = ~.2XU. X}.#.6.e h.Z P P T E ",
"#.' X.q _ ^ V.-X'.. /.%XP #.l e E P T T E ",
"| X.L A W p E.2XK.  [.;Xq.2.;.S Z P Z E E ",
"b 2.p s.W = (.&Xt.6 {.oXg.< P 6.E P P E E ",
"6.S l 2.P 6.W.2Xf D.2X!.o M.6.9 P Z Z E P ",
"e P a.2.- - Y.*X#X>X.XS.4 | @ 6.E Q E E W ",
"S P P ;.P q N.R.).`.Z.+ u.| - g.Z Z P E W ",
"q.P 9 S g.6.9 - 3.#.X n v.#.2.q Q E P E W ",
";.6.P e P P L X.3.5 #.y.e l 2.P Q E P E W ",
"0 ;.;.P P S E a.` x t.i e | 0 6.Z E Z E W ",
"q | L ^ q.2.l e x Q #.Q q.4.< l E Q E E W ",
"^ ;.L S ;.;.| q.t.f 6 #.i e 6.P Q Z P E W "
};
