/* XPM */
static char *ezgif_com_gif_maker_10_1653643276[] = {
/* columns rows colors chars-per-pixel */
"21 25 213 2 ",
"   c black",
".  c #010000",
"X  c #030102",
"o  c #0A0406",
"O  c #0B0507",
"+  c #090708",
"@  c #0B090A",
"#  c #0C0809",
"$  c #0D0B0C",
"%  c #0F0D0E",
"&  c #12060A",
"*  c #100A0C",
"=  c #110B0D",
"-  c #14090D",
";  c #100E0F",
":  c #150C0F",
">  c #130F10",
",  c #140E10",
"<  c #150F11",
"1  c #180D11",
"2  c #121011",
"3  c #131112",
"4  c #161012",
"5  c #151314",
"6  c #161415",
"7  c #171516",
"8  c #151716",
"9  c #191013",
"0  c #181214",
"q  c #191516",
"w  c #1A1416",
"e  c #1B1517",
"r  c #1D1417",
"t  c #191718",
"y  c #1E1518",
"u  c #1C1618",
"i  c #1D1719",
"p  c #1B191A",
"a  c #1D191A",
"s  c #1E181A",
"d  c #1F191B",
"f  c #1B1D18",
"g  c #1A1C1B",
"h  c #1D1B1C",
"j  c #1E1C1D",
"k  c #1F1D1E",
"l  c #20171A",
"z  c #231B19",
"x  c #241C19",
"c  c #241C1A",
"v  c #251D1A",
"b  c #251D1B",
"n  c #261E1B",
"m  c #22191C",
"M  c #201A1C",
"N  c #211B1D",
"B  c #231A1D",
"V  c #231A1F",
"C  c #241B1C",
"Z  c #241B1E",
"A  c #261B1F",
"S  c #221C1E",
"D  c #231D1F",
"F  c #201E1F",
"G  c #221E1F",
"H  c #251C1D",
"J  c #261E1C",
"K  c #271F1C",
"L  c #271F1D",
"P  c #251C1F",
"I  c #311D1C",
"U  c #1B211F",
"Y  c #1E201D",
"T  c #25201C",
"R  c #1D1E20",
"E  c #241B20",
"W  c #231F20",
"Q  c #211F22",
"!  c #231E22",
"~  c #261D20",
"^  c #241E20",
"/  c #251F21",
"(  c #271E21",
")  c #261D22",
"_  c #271E23",
"`  c #221F26",
"'  c #281F22",
"]  c #2A1E22",
"[  c #281E26",
"{  c #1B2023",
"}  c #1F2120",
"|  c #1E2221",
" . c #1D2122",
".. c #1F2022",
"X. c #222021",
"o. c #202022",
"O. c #232122",
"+. c #242021",
"@. c #262022",
"#. c #272123",
"$. c #242223",
"%. c #252024",
"&. c #252324",
"*. c #272324",
"=. c #262425",
"-. c #272526",
";. c #292023",
":. c #2A2124",
">. c #282224",
",. c #292325",
"<. c #2B2225",
"1. c #2D2226",
"2. c #2C2326",
"3. c #2F2327",
"4. c #282425",
"5. c #2A2426",
"6. c #2B2527",
"7. c #2A2627",
"8. c #2F2724",
"9. c #292728",
"0. c #2E2528",
"q. c #2C2628",
"w. c #2D2729",
"e. c #2A2829",
"r. c #2E282A",
"t. c #2F292B",
"y. c #2C2A2B",
"u. c #2D2B2C",
"i. c #2E2C2D",
"p. c #302825",
"a. c #322A27",
"s. c #302428",
"d. c #31262A",
"f. c #332B28",
"g. c #31282B",
"h. c #32292C",
"j. c #302A2C",
"k. c #312B2D",
"l. c #322C2E",
"z. c #302E2F",
"x. c #362D30",
"c. c #342E30",
"v. c #382C30",
"b. c #382D31",
"n. c gray19",
"m. c #323031",
"M. c #333132",
"N. c #343031",
"B. c #343233",
"V. c #373334",
"C. c #373536",
"Z. c #3B3034",
"A. c #383234",
"S. c #383637",
"D. c #3D3739",
"F. c #413F40",
"G. c #434142",
"H. c #464042",
"J. c #474143",
"K. c #464445",
"L. c #494345",
"P. c #4A4446",
"I. c #4B494A",
"U. c #4F4D4E",
"Y. c #625C5E",
"T. c #615F60",
"R. c #606060",
"E. c #696768",
"W. c #6B6768",
"Q. c #6C6668",
"!. c #676968",
"~. c #6F6D6E",
"^. c gray44",
"/. c #767273",
"(. c #747474",
"). c #777576",
"_. c #787677",
"`. c #7B797A",
"'. c #7D7B7C",
"]. c #807A7C",
"[. c #848283",
"{. c #858384",
"}. c #8A8486",
"|. c #8C8A8B",
" X c #918F90",
".X c #929091",
"XX c #A6A4A5",
"oX c #A7A5A6",
"OX c #B2ACAE",
"+X c #BDB7B9",
"@X c #C0BABC",
"#X c #C1BFC0",
"$X c #C2C0C1",
"%X c #CBC7C8",
"&X c #D5D3D4",
"*X c #DFE1E0",
"=X c #E3E1E2",
"-X c gray91",
";X c #EBE9EA",
":X c #ECEAEB",
">X c #EFEDEE",
",X c #F3EDEF",
"<X c #F2F0F1",
"1X c #F5F1F2",
"2X c #F5F3F4",
"3X c #F6F6F6",
"4X c #F9F7F8",
"5X c #FDFBFC",
"6X c #FEFCFD",
"7X c #FFFDFE",
"8X c #FFFDFF",
"9X c #FFFEFF",
"0X c #FEFFFF",
/* pixels */
"0.0.0.0.0.0.0.0.G A.P k.1.b.d.s.8.8.a.f.f.",
"( ( ( ( ( ( ( ( N.e 4.h.1 - v.' x n n n K ",
"P ( ( P ( P P ( # 4.k.M 1.d.A & x x x n n ",
"( ( ( ( ( ( ( ( e.y.e ; e v.' v.P K K K P ",
"P P P P P P P P n.. K./.H.o : h.B P P n G ",
"( ( ( ( ( ( ( ( 8 R.3X<X1XW.( #.E ( P B B ",
"' ' ' ' ' ' ' ' g =X-X(.=X%XG a >.' ' ( P ",
"m m m m m m m m !.0X^.. [.0XN.G _ ( E B B ",
"! O.w G 0.>.>.e $X-Xn.@ (.0XU.G T ! ! P T ",
">.( m *.9.d ( P.0X.X#.% .X0XI.+ P ! P O.! ",
">.M 4.#.4.i P ].0XS.; z.:X&X8 ! ( G P O.! ",
"m e 0.i >.( i }.0XI.Y.XX0X{.j y.G ( G P P ",
"a m y.; >.0.< Y.0X6X,X0X6XG.2 G P O.P ! P ",
"( 4.3.5 >.y.= z.C.~.XX2XXX; #.u.! ! T ! P ",
"#.4.#.m >.#.e G ! @ #X6Xn.. G.@ P T G ! T ",
"G ( M 4.0.a >.0.5 (.0X'.2 B.% y.! G ( ( ( ",
"r 1.( e #.&.t ; Q.,X@X#.5 l.P ( G m G P ( ",
"P M ( h.#.8 F.|.0X+XP.e #.9 O y.G P G G G ",
"x.B r ' a j `.4XOXH.o M 3.P #.y.G G G P ! ",
"i P ' >.O.p C.E.: e 0.y.a y.h.$ G P P P P ",
"1 ' >.G #.g % + M 4.3.P G ! ( >.G G ! G T ",
"3.' e w #.#.4.C.>.#.5 e y.#.d D.#.#.P ( ! ",
"M ' P #.e.j 8 p e >.#.( #.m w e P #.! G G ",
"i 3.( w O.i.&.d y.M ! #.i #.k.#.#.G ( ( G ",
"I n U  .` [ _  .! ! O. .!  . . .j  .U U f "
};
