/* XPM */
static char *_8fa61842fd94ab3c5cff0586d85af5e9xZ0yPY0qqMaO3L7[] = {
/* columns rows colors chars-per-pixel */
"50 50 173 2 ",
"   c #1B1B1B",
".  c gray11",
"X  c #1D1D1D",
"o  c #1E1E1E",
"O  c gray12",
"+  c #202020",
"@  c gray13",
"#  c #222222",
"$  c #232323",
"%  c gray14",
"&  c #252525",
"*  c gray15",
"=  c #272727",
"-  c #282828",
";  c gray16",
":  c #2A2A2A",
">  c gray17",
",  c #2C2C2C",
"<  c #2D2D2D",
"1  c gray18",
"2  c #2F2F2F",
"3  c gray19",
"4  c #313131",
"5  c #323132",
"6  c #323232",
"7  c gray20",
"8  c #343434",
"9  c #353535",
"0  c gray21",
"q  c #373737",
"w  c #373837",
"e  c gray22",
"r  c #393939",
"t  c #3A393A",
"y  c #3A3A3A",
"u  c gray23",
"i  c #3B3C3B",
"p  c #3C3C3C",
"a  c #3C3D3C",
"s  c gray24",
"d  c #3E3E3E",
"f  c #3F3F3F",
"g  c gray25",
"h  c #414141",
"j  c #424142",
"k  c gray26",
"l  c #434343",
"z  c #444444",
"x  c #454445",
"c  c gray27",
"v  c #464646",
"b  c #474647",
"n  c gray28",
"m  c #474847",
"M  c #484648",
"N  c #484748",
"B  c #484848",
"V  c #494849",
"C  c #494949",
"Z  c gray29",
"A  c #4B4A4B",
"S  c #4B4B4B",
"D  c #4C4A4C",
"F  c #4C4B4C",
"G  c #4C4C4C",
"H  c #4C4D4C",
"J  c #4D4C4D",
"K  c gray30",
"L  c #4D4E4D",
"P  c #4E4C4E",
"I  c #4E4D4E",
"U  c #4E4E4E",
"Y  c #4E4F4E",
"T  c #4F4E4F",
"R  c gray31",
"E  c #4F504F",
"W  c #504E50",
"Q  c #504F50",
"!  c #505050",
"~  c #505150",
"^  c #515051",
"/  c #515151",
"(  c #525052",
")  c #525152",
"_  c gray32",
"`  c #535253",
"'  c #535353",
"]  c #545254",
"[  c #545354",
"{  c gray33",
"}  c #555455",
"|  c #555555",
" . c #565556",
".. c #565656",
"X. c #575657",
"o. c gray34",
"O. c #585858",
"+. c #595859",
"@. c gray35",
"#. c #595A59",
"$. c #5A595A",
"%. c #5A5A5A",
"&. c #5B5B5B",
"*. c gray36",
"=. c #5D5D5D",
"-. c gray37",
";. c #5F5E5F",
":. c #5F5F5F",
">. c #605F60",
",. c #606060",
"<. c #616061",
"1. c gray38",
"2. c #626262",
"3. c gray39",
"4. c #646464",
"5. c #656565",
"6. c #666566",
"7. c gray40",
"8. c #676767",
"9. c #686868",
"0. c DimGray",
"q. c #6A696A",
"w. c #6A6A6A",
"e. c gray42",
"r. c #6C6C6C",
"t. c #6D6D6D",
"y. c gray43",
"u. c #6F6F6F",
"i. c gray44",
"p. c #717171",
"a. c #727272",
"s. c gray45",
"d. c #747374",
"f. c #747474",
"g. c gray46",
"h. c #767676",
"j. c #777777",
"k. c gray47",
"l. c #797979",
"z. c gray48",
"x. c #7A7B7A",
"c. c #7B7A7B",
"v. c #7B7B7B",
"b. c #7C7C7C",
"n. c gray49",
"m. c #7E7D7E",
"M. c #7E7E7E",
"N. c #7E7F7E",
"B. c gray50",
"V. c #808080",
"C. c #818181",
"Z. c gray51",
"A. c #838383",
"S. c #848484",
"D. c gray52",
"F. c #868686",
"G. c #868786",
"H. c gray53",
"J. c #888888",
"K. c #898989",
"L. c gray54",
"P. c #8B8B8B",
"I. c gray55",
"U. c #8D8D8D",
"Y. c #8E8E8E",
"T. c gray56",
"R. c #909090",
"E. c gray57",
"W. c #929292",
"Q. c #939393",
"!. c gray58",
"~. c gray59",
"^. c #989898",
/* pixels */
"M.a.R R R F w.h.h.h.h.a.h.a.D.D.K.D.K.T.k @ % > > > 4 y f y y 4 , > > > % f O.= q Q A.K.K.z.a.a.a.h.",
"M.a.Z R ' 4.a.a.h.h.h.a.a.h.M.M.A.z.A.K.w...-.k % > , f 4 4 4 , , , > > f n ..> 4 n 2.a.K.A.A.M.M.M.",
"M.d.R R @.h.h.h.h.h.h.h.h.a.h.h.h.a.h.D.T.K.E.-.% , 4 f , % , , , , > > ' ' ..> 4 9 Z ..K.D.K.D.D.D.",
"Z R Z a.h.h.h.h.h.h.h.h.h.h.h.a.a.a.a.h.A.D.T...% , > > > > > > % % k ' R f > % 4 y R Q ' Q ..z.z.z.",
"Z ..-.a.a.h.h.h.h.h.h.h.h.h.M.z.M.M.z.z.D.D.D.' % , , f y y y n n n ..2.2.n > % 4 y n M E R ' -.-.-.",
"m :.h.a.a.h.a.a.d.d.d.a.a.a.D.I.E.E.E.E.E.E.M.' > % y ' ' ' R y.z.z.z.h.z.' O > 4 u y y ..' ' 9 9 9 ",
"Z 4.K.D.D.D.D.D.D.D.D.D.D.D.K.y.> f f f 9 4 , , % R ' R R ' F z.D.h.h.h.h.h.h.> , > y f f f y y 9 , ",
"k :.M.z.M.z.z.M.z.b.M.z.b.b.b.2.% 9 9 y , > f y f ..@.-.Q Q F z.K.a.h.h.a.h.M.> > > 8 q 9 9 9 y 4 > ",
"% y ' Z R R F R F F R R R R R n f , > @ @ > A.z.z.h.M.E...Q F V.T.a.a.d.d.h.M.% > , % > > > > % % > ",
"% 9 k f k f F R ' n f f f f f f y > 4 w.w.4.a.a.a.A.D.T.' R ' k n I.A.A.a.a.z.4.' % > > > > , y.Z > ",
"> 4 y 9 9 9 Z R R k 9 y y y q y k 4 f z.z.h.a.h.h.D.D.D.' ' R 3 4 K.D.D.h.a.h.z.2., 4 4 4 4 9 M..., ",
"@ % , > 4 y f y % = > % % @ @ f A.z.M.h.a.a.h.M.K.T.a.Z @.Q @ 9 u Z h.T.K.A.a.h.h.M.M.M.z.M.M.h.z.z.",
"-.Z % , , 4 , 4 > , = w.4.4.@.2.h.h.d.a.M.A.M.D.K.4...k n k 4 y f ' -.4.K.D.M.h.h.h.a.h.h.h.h.a.a.a.",
"A.w.% > , , > , , , > E.T.T.z.h.h.h.h.a.A.K.D.D.K.R n 9 y y y f y ' R R K.D.K.a.h.h.h.h.a.h.h.h.h.a.",
"M.A.z.9 > > % 4 M.>.R E.K.K.h.a.h.a.a.a.A.K.Z R ' y y k , , > 9 y f y y R w.E.T.K.K.h.a.d.h.h.d.a.a.",
"M.h.4.4 > > n ..M...y @.y.K.M.k.h.h.h.M.D.D.F ' Q y 9 9 , > > 4 4 9 9 y n Q 4.-.y.K.M.M.M.b.M.b.M.z.",
"D.z.' 4 > O 4.z.z.k O @ ..~.K.A.a.h.h.D.I.K.Q ' [ f 4 > > > @ > > > 4 y 9 y 9 9 ..~.E.E.E.T.T.T.T.T.",
"9 y y % 9 z.h.h.h.h.z.% % % K.K.D.D.D.E.-.R % 9 y > > > % y A.y > % > > % > , , > % 9 y 9 Z Q ' k y ",
"4 9 4 k ' z.h.h.h.h.h.f y % 4.h.A.A.A.z.@.Q , 9 f > > > f R M.R k f k k n 9 , , > > 9 9 9 k z F k y ",
"@ % O y.M.a.h.h.h.h.a.A...@ @ f M.h.y.n ' ' f f y , >   a.z.a.z.M.z.z.z.M...@ % % @ > , > = = 4 4 4 ",
"-.4.w.a.h.h.a.h.h.h.h.h.y.w.> , 9 ' ..' n f > , > > k y.h.a.a.h.h.h.h.h.h.y.w.w.y.z.n 4 > k R M.z.z.",
"a.z.h.z.h.h.h.h.h.h.h.a.h.z.k 9 @ n F R f 4 > > > 4 ' z.h.h.h.h.h.h.h.h.h.a.d.h.M.E.Z 9 % n [ A.D.K.",
"M.T.K.K.D.a.a.a.a.a.h.y.z.T.^.h.@ 9 y y , , > = % M.z.h.h.h.h.h.h.h.h.h.h.h.a.a.z.T.Z 9 % n Q M y.T.",
"..y.z.D.D.M.A.A.A.z.a.A.A.K.Z f 9 4 , 4 , , n z k h.h.h.h.h.h.h.h.h.h.h.a.h.A.A.D.T.Z 9 > n ' R @.-.",
"M -.a.A.A.D.D.K.K.M.h.D.D.D., , f , > , , , ..' ' h.z.h.h.h.h.h.h.h.h.h.a.z.K.A.A.D.Z 9 % n R Q Q R ",
"Z ' R R [ z.h.z.K.K.K.E.a.' f y , , 4 @.[ ' R w.M.K.K.K.a.h.a.a.d.a.M.K.T.K.!.% > y y y > % > ..' ' ",
"Z [ ' R ' 2.2.2.y.2.-.2.' k f 9 > > , f Z ' R @.2.w.h.K.M.M.M.A.V.M.A.D.4.9.y.4 4 i 9 4 % M [ z k n ",
"F ..' ' ' R ' R R f 9 4 4 4 y 4 % > , % M [ ' R R Z 4.E.T.T.K.K.K.T.K.K.R R ' y y f > @ O 2.k., 9 y ",
"% 4 y f y u u u f y 9 z.z.z.' R .., > > y y 9 n ' ' R R R F Z R R Z F R ' Z 9 y 4 O w.z.z.D.K.~.O.+ ",
"> , 9 4 4 9 8 9 9 9 9 z.h.h.-.-.2.R k > 4 9 y k M n n M R R R Q Q Q ' R k f y z n n y.z.a.M.A.K.w.Z ",
"@ % % > % % @ % @ @ @ z.h.h.z.h.h.z.y.O % % y f y y y q Q [ ' [ [ ' [ ..% 4 9 R @.M.h.h.h.a.d.J.T.I.",
"w.4.Z R ..a.u.u.a.y.y.a.h.h.h.h.a.h.a.y.a.a.% , , , 8 u f u f u y f 9 , % y R a.h.a.h.h.h.a.h.h.V.D.",
"w.2.R Q @.z.h.h.h.h.a.a.h.h.h.h.h.z.z.M.a.w.4 , , > 4 q 9 y 9 y y y , , y Z @.h.h.h.h.a.h.h.h.a.M.D.",
"n R R R ..h.h.h.h.h.h.h.h.h.h.h.a.D.K.E.-.R @.k > > > > > > > 9 y f f k z.z.h.h.h.h.h.h.h.h.a.a.M.K.",
"Z Q F r.a.h.h.a.h.h.h.a.h.h.a.z.A.D.A.@.[ ' f 4 , > > > > , , 4 4 , , , h.a.h.h.h.h.h.h.h.h.h.A.D.D.",
"Z Q Q a.z.h.h.h.h.h.z.h.h.h.h.z.K.A.h.M R Q y 4 > 9 4 8 > , > , , > > , h.a.h.h.h.h.h.h.h.h.h.K.D.M.",
"F ' R y.d.h.y.h.D.K.T.a.z.K.K.T.E.@.n % 9 y f , @ h.z.A., % % % % % > > z.h.h.a.a.a.h.h.h.a.h.K.w.n ",
"Z Q R a.d.a.M.A.T.a.2.A.A.K.4.4.w.n g 9 4 4 , n @.h.h.z.-.@.@.@.@.-.f % n 2.A.M.M.A.h.h.h.z.A.K.w.R ",
"R ..R a.d.a.A.K.K.4.n T.K.I...R R f y f 4 > @ ' M.a.d.h.h.z.z.z.z.M.n % @ ' E.T.K.K.h.a.a.D.K.K.y.Z ",
"% > @ a.M.a.D.A.Z ' ' Z R Z ' M 9 y 9 > > % A.z.a.h.h.h.h.h.h.h.h.h.z.z.9 9 9 O n E.K.T.K.K.D.Z Z R ",
"> > = R O.k.u.9.Q ' [ Q F z Q Z 9 8 3 > n ' h.a.h.h.h.h.h.h.h.h.h.h.a.h.2.' y 4 f @.w.w.w.y.w.Q R R ",
"% > = % q A.@.F ' Q Q ' M q ' F f , > @ >.z.h.a.h.h.h.h.h.h.h.h.h.h.a.h.T.w.9 y 9 @ n R R Z R ' ' Q ",
"@ Z b.4 > > q f u u f f f u , > > % 8 k.a.h.h.a.h.h.h.h.h.h.h.h.h.h.h.a.K.2.9 f y y f k ' k y f f y ",
"y @.z.R n % 4 9 q q u 8 8 9 , , > f Z h.h.h.d.h.h.h.h.h.h.h.h.h.h.a.z.M.K.4.4 9 9 9 9 9 Z y 9 4 9 9 ",
"a.z.a.T.z.% > > = 8 f > > > % %   w.b.h.h.d.d.d.a.f.f.f.f.f.f.a.h.a.A.K.E.w.y > > @ > , % > > @ @ % ",
"r.h.a.D.h.% > > > > > = = = 4.a.b.D.J.D.D.K.D.J.D.K.K.D.A.A.a.A.A.A.T.D.n y > > f z.9 % > > > y.w.w.",
"w.k.k.J.d., 4 3 > 4 3 y y y 4.u.b.b.b.M.M.z.b.b.z.z.b.z.D.A.h.A.K.z.z.z.9 4 > 4 n y.n 9 y y f z.h.a.",
"w.M.K.J.b.F ..Q % k ' b.b.M.> = 8 Z R R R R F R R R R n S.T.K.T.D.n R R f 9 % @.k   w.z.M.z.z.h.h.a.",
"h.D.D.K.M.Z [ ' k -.y.z.h.z., , 4 9 9 9 f k f f f f n R -.2.2.{ ' f k k , 3 = ..n @ d.A.h.h.h.h.h.h.",
"a.b.k.M.y.Z Z M Z -.w.w.w.w.> % > % % % 4 9 9 4 9 4 y R M m Z y 4 4 9 9 > % % Z f O w.M.w.w.w.w.w.w."
};
