/* XPM */
static char *_39515a2bb9146fd8609667196c65bd5QMsBzm9vgdX3Znsy[] = {
/* columns rows colors chars-per-pixel */
"50 50 195 2 ",
"   c #7E7E7E",
".  c #727272",
"X  c #4D4E4D",
"o  c #505050",
"O  c #515051",
"+  c #4C4B4C",
"@  c #6A6A6A",
"#  c #767676",
"$  c gray46",
"%  c #747474",
"&  c #868686",
"*  c gray53",
"=  c #888888",
"-  c #8E8E8E",
";  c #414141",
":  c #222222",
">  c gray15",
",  c #282828",
"<  c gray17",
"1  c #2A2A2A",
"2  c gray19",
"3  c #3A3A3A",
"4  c gray23",
"5  c #3C3C3C",
"6  c #595859",
"7  c #373737",
"8  c #818181",
"9  c gray55",
"0  c #797979",
"q  c gray45",
"w  c gray49",
"e  c #4E4E4E",
"r  c gray33",
"t  c #646464",
"y  c gray44",
"u  c gray50",
"i  c #8B8B8B",
"p  c #686868",
"a  c gray34",
"s  c gray37",
"d  c #434343",
"f  c #272727",
"g  c #313131",
"h  c gray24",
"j  c gray20",
"k  c #323232",
"l  c #2D2D2D",
"z  c #2C2C2C",
"x  c #3E3E3E",
"c  c #474847",
"v  c #575657",
"b  c gray27",
"n  c gray39",
"m  c #6F6F6F",
"M  c gray54",
"N  c #808080",
"B  c #747374",
"V  c #4C4C4C",
"C  c #4E4F4E",
"Z  c gray35",
"A  c gray47",
"S  c #8D8D8D",
"D  c #929292",
"F  c #5B5B5B",
"G  c #3F3F3F",
"H  c #535353",
"J  c #545354",
"K  c #555555",
"L  c gray22",
"P  c #494949",
"I  c #898989",
"U  c gray31",
"Y  c gray30",
"T  c #585858",
"R  c gray16",
"E  c #252525",
"W  c gray26",
"Q  c gray32",
"!  c #525152",
"~  c #565556",
"^  c gray48",
"/  c #777777",
"(  c gray29",
")  c #565656",
"_  c #5F5F5F",
"`  c #717171",
"'  c #7B7B7B",
"]  c #7C7C7C",
"[  c #848484",
"{  c gray52",
"}  c #393939",
"|  c gray28",
" . c #464646",
".. c gray38",
"X. c #484848",
"o. c #5D5D5D",
"O. c gray58",
"+. c gray57",
"@. c #373837",
"#. c gray43",
"$. c #1D1D1D",
"%. c gray21",
"&. c #6C6C6C",
"*. c #353535",
"=. c gray18",
"-. c #4B4B4B",
";. c #515151",
":. c #4D4C4D",
">. c #424142",
",. c #7E7F7E",
"<. c #7A7B7A",
"1. c #7B7A7B",
"2. c #5A5A5A",
"3. c #525052",
"4. c #343434",
"5. c #232323",
"6. c #4C4D4C",
"7. c #4E4C4E",
"8. c #4E4D4E",
"9. c gray14",
"0. c gray51",
"q. c gray25",
"w. c gray42",
"e. c #676767",
"r. c gray40",
"t. c #535253",
"y. c #6D6D6D",
"u. c #2F2F2F",
"i. c #483C3C",
"p. c #422A2A",
"a. c #352929",
"s. c #EBCC36",
"d. c #977B30",
"f. c #87542D",
"g. c #362A2A",
"h. c #372B2B",
"j. c #FFF178",
"k. c #A18E51",
"l. c #E38B4E",
"z. c #B5703E",
"x. c #838383",
"c. c #605454",
"v. c #656565",
"b. c #5F5353",
"n. c gray12",
"m. c #5E5252",
"M. c #9E6235",
"N. c #909090",
"B. c #5C5050",
"V. c #5B4F4F",
"C. c #653F2C",
"Z. c #444444",
"A. c #4B4A4B",
"S. c #202020",
"D. c #83663E",
"F. c #555455",
"G. c #5A4E4E",
"H. c #6C532D",
"J. c #484648",
"K. c #625656",
"L. c #474647",
"P. c #504F50",
"I. c #5F5E5F",
"U. c #655959",
"Y. c #422917",
"T. c #422A21",
"R. c #605555",
"E. c #53331D",
"W. c #533426",
"Q. c #75572B",
"!. c #533321",
"~. c #626262",
"^. c #633D22",
"/. c gray73",
"(. c #754928",
"). c #989898",
"_. c #939393",
"`. c #505150",
"'. c #504E50",
"]. c #4E4242",
"[. c #483636",
"{. c #4F4E4F",
"}. c DimGray",
"|. c #595A59",
" X c gray56",
".X c gray13",
"XX c #1B1B1B",
"oX c #6A696A",
"OX c #3A393A",
"+X c #7E7D7E",
"@X c #4F504F",
"#X c gray11",
"$X c #4C4A4C",
"%X c #606060",
"&X c #484748",
/* pixels */
"  . X o O + @ # $ $ $ % % % & * = * * - ; : > , < 1 2 3 4 3 5 2 < < 1 1 , 4 6 , 7 o 8 9 = 0 q % % q ",
"w q + e r t y q # # # q q %   u u w u i p a s d f 1 g h j g k l < z < < x c v 1 k b n m M 8 N   u   ",
"u B V C Z 0 # $ # # # $ $ $ % $ % . A * S 9 D F > < g G z 1 < < z < < z H J K 1 2 L P K 9 * I * = & ",
"P U Y y % $ # # # # # # # $ # q q q % q 8 * - T > z 1 R 1 1 1 , , E W Q o x 1 R g 3 e ! o U ~ ^ 0 / ",
"( ) _ ` % $ # # # # # # # $ w ' ] w ' ' [ & { H > < 2 h } 4 } | P  .) ..n X.R R g 3  .P o e H s o.s ",
"X._ # ` q q q q q q q q q . & 9 D O.+.+.D +.u o f f @.r Q H o #.0 ^ 0 A ^ H $.R g 4 } 5 K r o %.7 7 ",
"X.p I & & & & & & & & & & & 9 &.1 5 x G *.g =.z f -.U o o ;.:.A & % # # # % / < z z } 5 h 5 h 4 *.< ",
">.s ,.' ' <.' ' 1.' ] ' ' ^ w n f *.7 7 l R h 4 5 T 2.s O 3.:.^ * % # # % $   R < 1 4.L %.7 7 L 2 1 ",
"5.} O 6.Y e 7.:.:.8.Y e 8.e U | 5 z 1 5.9.f 0.' ] /   D J ! :.u - q . $ % %   5.> l R R 1 1 1 9., l ",
"f j ; G q.x Y o Q | q.q.q.x q.x 4 < j w.e.r.% . q 0.{ - t.U Q W b M { 8 q q A p H > R R 1 R l y.X.f ",
", u.3 L 7 %.-.U i.p.p.p.p.p.p.p.p.p.p.p.p.p.p.p.p.p.p.p.p.p.p.p.p.p.p.p.p.p.p.p.p.p.k k j k L   H u.",
": f < 1 2 h 4 7 a.p.s.d.p.f.f.f.f.f.f.f.f.f.f.f.f.f.f.f.f.f.f.f.f.f.f.f.f.f.p.s.d.p.  w w w ' # 0 ^ ",
"_ -.E 1 z k 2 g g.p.s.d.p.f.f.f.f.f.f.f.f.f.f.f.f.f.f.f.f.f.f.f.f.f.f.f.f.f.p.s.d.p.$ # # # $ % q q ",
"[ e.f 1 < < 1 l h.p.j.k.p.l.l.l.l.l.f.f.f.f.f.f.f.f.f.z.l.l.l.l.l.l.l.l.l.l.p.j.k.p.# $ $ $ # # q q ",
"  x.0 *.1 < , g c.p.j.k.p.l.l.l.l.l.f.f.f.f.f.f.f.f.f.z.l.l.l.l.l.l.l.l.l.l.p.j.k.p.# % $ $ $ $ % . ",
"w A v.k 1 R  .K b.p.s.d.p.f.f.f.z.l.l.l.l.l.l.l.l.l.l.l.l.f.f.f.f.f.f.f.f.f.p.s.d.p.  ] w w w w ] ] ",
"{ / U 2 R n.r.] m.p.s.d.p.f.f.f.M.z.z.z.z.z.z.z.z.z.z.z.z.f.f.f.f.f.f.f.f.f.p.s.d.p.+.+.+.S - - N.+.",
"7 4 5 f L ^ $ # B.p.s.d.p.f.f.f.f.f.f.f.f.f.f.f.f.f.f.f.f.f.f.f.f.f.f.f.f.f.p.s.d.p.7 L %.-.O t.W } ",
"k *.j q.U ^ $ $ V.p.s.d.p.f.f.f.f.f.f.f.f.f.f.f.C.p.f.f.f.f.f.f.f.f.f.f.f.f.p.s.d.p.4.%.*.; Z.A.W } ",
"S.9.n.y ] $ # $ B.p.s.d.p.C.C.C.C.C.C.C.C.C.C.C.D.k.C.C.C.C.C.C.C.C.C.C.C.C.p.s.d.p., < 1 f , 4.k j ",
"s p e.% $ $ $ # B.p.s.d.p.p.p.p.p.p.p.p.p.p.p.p.k.j.p.p.p.p.p.p.p.p.p.p.p.p.p.s.d.p.b 4., W U w ^ / ",
"y ^ A A A $ # # B.p.s.s.s.s.s.s.s.s.s.s.s.s.s.p.d.s.p.d.s.s.s.s.s.s.s.s.s.s.s.s.d.p.( *.f  .F.8 { M ",
"u S M I x.` . . G.p.d.d.d.d.d.d.d.d.d.d.d.d.d.p.d.s.p.H.d.d.d.d.d.d.d.d.d.d.d.d.H.p.X.7 f J.o X.#.S ",
"T &.0 & & 8 0.0.K.p.p.p.p.p.p.p.p.p.p.p.p.p.p.p.d.s.p.p.p.p.p.p.p.p.p.p.p.p.p.p.p.p.P %.f L.Q P.Z I.",
"L.o.q 0.[ * & * U.p.s.d.p.Y.Y.Y.Y.Y.Y.Y.Y.Y.Y.p.d.s.p.T.Y.Y.Y.Y.Y.Y.Y.Y.Y.Y.p.s.d.p.X.%.> Z.U O O 8.",
"A.! e U ~ ^ $ # R.p.s.d.p.E.E.E.E.E.E.E.E.E.E.W.Q.d.W.!.E.E.E.E.E.E.E.E.E.E.p.s.d.p.T P R f R K t.Q ",
"A.r ;.;.r n ~.$ B.p.s.d.p.^.^.^.^.^.^.^.^.^.^.^.W.p.^.^.^.^.^.^.^.^.^.^.^.^.p.s.d.p.$ H f | H Z.d b ",
"+ ) Q Q Q U /.$ B.p.s.d.p.f.f.f.f.f.f.f.f.f.f.^.^.^.^.(.f.f.f.f.f.f.f.f.f.f.p.s.d.p.$ )./...# u.7 3 ",
"> g 3 4 4 4 /.$ B.p.s.d.p.f.f.f.f.f.f.f.f.f.f.^.^.^.^.(.f.f.f.f.f.f.f.f.f.f.p.s.d.p.$ )./.* M _.a S.",
"f =.%.4.4.4./.$ B.p.j.k.p.f.f.f.f.f.f.f.f.f.f.f.(.^.f.f.f.f.f.f.f.f.f.f.f.f.p.j.k.p.$ )./.w 0.M w.V ",
": > , f > 9./.$ B.p.j.k.p.f.f.f.f.f.f.f.f.f.f.f.f.f.f.f.f.f.f.f.f.f.f.f.f.f.p.j.k.p.$ )./.q q I - 9 ",
"@ n -.e H ` /.$ B.p.j.k.p.f.f.f.f.f.f.f.f.f.f.f.f.f.f.f.f.f.f.f.f.f.f.f.f.f.p.j.k.p.$ )./.q $ $ N & ",
"p n P.O Z ^ /.$ B.p.s.d.p.p.p.f.f.f.f.f.f.f.f.f.f.f.f.f.f.f.f.f.f.f.f.C.p.p.p.s.d.p.$ )./.# % . w & ",
" .U U 8.K 0 /.$ B.p.s.d.p.p.p.f.f.f.f.f.f.f.f.f.f.f.f.f.f.f.f.f.f.f.f.C.p.p.p.s.d.p.$ )./.# % . w * ",
"( O 8.w.` # /.$ B.p.s.s.s.s.p.p.p.p.p.p.p.p.p.p.p.p.p.p.p.p.p.p.p.p.p.p.p.s.s.s.d.p.$ )./.$ $ [ & & ",
"( `.'.` A # /.$ B.p.d.d.d.d.p.].].].].].].].].].].].].].].].].].].].].[.p.d.d.d.H.p.$ )./.# / = [ u ",
"-.! {.y % $ /.$ B.p.p.p.p.p.p.Z Z Z Z Z Z Z Z Z Z Z Z Z Z Z Z Z Z Z Z ].p.p.p.p.p.p.$ )./.q % i }.P ",
"-.;.{.` % q   $ $ $ $ $ $ $ $ $ $ $ $ $ $ $ $ $ $ $ $ $ $ $ $ $ $ $ $ $ $ $ $ $ $ $ $ $ $ ] N i @ Y ",
"e K o ` % . 0.u 9 ).).).).).).).).).).).).).).).).).).).).).).).).).).).).).).).).).# q . x.I 9 &.V ",
"f f 9.y ] q * 0.0./././././././././././././././././././././././././././././././././.i i i M { X.V U ",
"R < R V T A m p O ! ! ! + d ! ( L j 2 ,  .Q A q $ # # # # # # # # $ % % ~.o } g h 2.@ &.w.y.w.{.U o ",
", < , E L 0.|.8.! ! t.t. .7 ;.V 5 l 1 5...' % q # # # # # # # # # $ q #  Xp 7 5 4.5. .e U V e ;.o o ",
".XX.' g , l 7 h 5 5 5 h 4 3 l z < f 4./ % % $ q # # # # # # # # # # $ % M t *.h 3 3 4 G H ; h 5 h 5 ",
"3 T ' U Z.f k 7 7 L 5 4.*.*.=.z 1 h -./ # # $ $ # # # # # # # # # q 0 ] i t *.%.%.7 *.L X.3 *.*.*.*.",
". 0 % - 0 9.1 < f *.x R 1 1 E 5.XXw.] $ # % % % % % % % % % % q % . 8 M D @ L 1 f : 1 < , < 1 : : 5.",
"&.$ . * % 5.1 < < < z R R f e.. ' & * & { * * * * * * * x.x.q N x.x.i I  .} < 1 G A %.> R , l #.w.oX",
"@ A / = % =.k g < g g 3 } OXt #.] ] +Xw ] ] ] ] ] ] ] ' * 0.# 0.I ' w 0 L k R k  .m d } 3 } x ^ # % ",
"}.  I = ' :.) P.5.W Q ] ]   1 f j -.U @X{.8.8.8.8.8.8. .{ S 9 - * X.e {.5 *.> T Z.#Xw.] ] ] ^ / $ q ",
"A { = M w $XH ;.Z.s #.A / ^ =.l u.*.%.4.x q.q.q.q.G  .`.%X..~.K o G ; ; 2 =.f )  .: $ x.# / / # A $ ",
"` ' 0 w #.| ( P X._ w.}.}.w.R > R E > E u.%.j j j k 4 V &XX.P L k 4.*.j f , 9.( x $.&.] p w.@ }.}.p "
};
