/* XPM */
static char *fd924f1879e64a789adeae9c16e1430dNqgvjR6bmvLaS0LH[] = {
/* columns rows colors chars-per-pixel */
"50 50 57 1 ",
"  c black",
". c gray12",
"X c #202020",
"o c gray13",
"O c #232323",
"+ c gray14",
"@ c #282828",
"# c gray17",
"$ c #2C2C2C",
"% c #2F2F2F",
"& c #313131",
"* c gray20",
"= c #353535",
"- c #373737",
"; c #3A3A3A",
": c gray24",
"> c #3F3F3F",
", c gray26",
"< c #464646",
"1 c #474847",
"2 c #484748",
"3 c gray29",
"4 c #4C4B4C",
"5 c gray31",
"6 c #4F504F",
"7 c #504F50",
"8 c #535353",
"9 c #545354",
"0 c #565656",
"q c #585858",
"w c gray35",
"e c gray37",
"r c #5F5F5F",
"t c gray39",
"y c #646464",
"u c #686868",
"i c #6A6A6A",
"p c #6C6C6C",
"a c #6F6F6F",
"s c #717171",
"d c #727272",
"f c #747374",
"g c #767676",
"h c gray47",
"j c gray48",
"k c #7B7B7B",
"l c #7E7E7E",
"z c gray50",
"x c #838383",
"c c #848484",
"v c gray52",
"b c #888888",
"n c #898989",
"m c gray55",
"M c #8E8E8E",
"N c gray57",
"B c #939393",
/* pixels */
"ld5554iggggdgdvvnvnM,o+###$;>;>$####+;w#&5xnnjdgdd",
"ld358yddgggddgllllxni0e,+#&>&&&$####>30#=<tdnxllzl",
"lf55wggggggggdgggdgvnMNe+#&>##$$####880#&=30mvnvnv",
"353dgggggggggggdddfgxlllxlllll###+,85>#+&;55750jjg",
"30eddgggggggggljlllx          llx<0tt2O#&;<3558eee",
"3egddgdddggdddvxl                llgj8X#&;;;088*=-",
"3tnvvvvvvvvvvxl                    llgg#$$;>>>>>=$",
",eljljjljjljl                        ll$$#&;*=*=&$",
"+;835535454l                          zO$$#@###o@$",
"+=,>,>478<l                            z8+O#@#$a2O",
"#&;=;=368l                              l$&&&&;l0$",
"o+$#$>;=l                                llllljgjl",
"e3+$$&$x                                  zggggddd",
"xi+#$$x                                    zgdgggd",
"lxj=##l                                    zggggdd",
"lgy&#l                                      llljlj",
"vg5&#x                                      xMMMNM",
"=;>+l                                        l58,;",
"&=&,l                                        l<3,;",
"o+.dl                                        x+&&&",
"eiyl                                         z7ljj",
"djgx                                          lxvn",
"lMnl                                          z3aM",
"0ijx                                          z7qe",
"<edl                                          l777",
"385l                                          l088",
"398l                                          z<,<",
"408l                                          z%=;",
"#&;l                                          zB0X",
"O#=x                                         zxnp4",
"o##ox                                        lfnMm",
"it35l                                        lgglv",
"yt57l                                        zgdlv",
"<8550l                                      zgddln",
"375idl                                      lggvxv",
"375djgl                                    zgggbxl",
"485affl                                    lgfgni3",
"375dgdlx                                  lggjxni5",
"505dfdxnl                                lggdvnni3",
"O#odjdvx3x                              vNnMnnv355",
"###7wgau78l                            l;wiiiii755",
"+$++=xw4878l                          l>=+<5555855",
"o3j&$$;>;>;>l                        l=>;;>,8,;>,>",
";wj7<+&==;>&=xl                    lxy&=====3;=&==",
"djdMjo$#+=,+##+lz                llnNi;#+o#$+##ooo",
"agdxgO##$####+idklzzz        llxlvMn<;##,j=+###aii",
"ijjvd$&&$&&;;;tajlljlllllllxlxgxnjlj=&#&<a,;;;>jgd",
"ilnnj508o,0jjl#+&3855753555<vMnMv<55>=+w,.ijljjggg",
"gvvnl398,eagjj$$&===>>,>,><6ett08>,,$$#0<ogvggggjg",
"djjla<323eiiii#+#+++$;=&&&;53<3=&&==#+o3>oijyaiiit"
};
