/* XPM */
static char *_c12ca5a4cbd4ee985219f97c769aeed99DYPe52H72dY4Q6[] = {
/* columns rows colors chars-per-pixel */
"50 50 209 2 ",
"   c #7E2927",
".  c #7C2A28",
"X  c #B71914",
"o  c #BC1D17",
"O  c #B51F1A",
"+  c #BB1E19",
"@  c #9C261F",
"#  c #9D2C1F",
"$  c #9F301D",
"%  c #A4241E",
"&  c #AB241D",
"*  c #A5291E",
"=  c #AB2A1E",
"-  c #BC2317",
";  c #B42C16",
":  c #BF2815",
">  c #B4231C",
",  c #BC231A",
"<  c #B4291D",
"1  c #BD2A1C",
"2  c #B13017",
"3  c #872725",
"4  c #8C2724",
"5  c #842926",
"6  c #8B2925",
"7  c #812A28",
"8  c #942623",
"9  c #9B2522",
"0  c #932924",
"q  c #9B2922",
"w  c #A32521",
"e  c #AA2521",
"r  c #A22921",
"t  c #AA2920",
"y  c #B52522",
"u  c #BB2421",
"i  c #B52B21",
"p  c #B82A20",
"a  c #D7150F",
"s  c #DC140E",
"d  c #D61C0F",
"f  c #DC1C0D",
"g  c #C41D16",
"h  c #CC1B14",
"j  c #C21D1A",
"k  c #CC1F1A",
"l  c #D31610",
"z  c #DF1311",
"x  c #D31C12",
"c  c #DA1C11",
"v  c #E10D0E",
"b  c #E81E07",
"n  c #E2150D",
"m  c #E31C0C",
"M  c #E91F09",
"N  c #E01410",
"B  c #D7240F",
"V  c #DC230D",
"C  c #D62A0E",
"Z  c #DE2C0D",
"A  c #DB310F",
"S  c #C42316",
"D  c #CB2415",
"F  c #C32A14",
"G  c #CC2A16",
"H  c #C3241A",
"J  c #CC231A",
"K  c #C42A19",
"L  c #C9281E",
"P  c #D32313",
"I  c #DB2411",
"U  c #D42B14",
"Y  c #DB2B13",
"T  c #D22519",
"R  c #DC3411",
"E  c #DD3C15",
"W  c #E72007",
"Q  c #E92307",
"!  c #E52805",
"~  c #ED2B06",
"^  c #E4240C",
"/  c #E9240A",
"(  c #E42B0C",
")  c #EB2B0A",
"_  c #F42E05",
"`  c #F82C00",
"'  c #ED3605",
"]  c #ED3D05",
"[  c #E6330D",
"{  c #EB340A",
"}  c #E73D0B",
"|  c #EC3A0B",
" . c #F23304",
".. c #F93602",
"X. c #F33C06",
"o. c #FC3F02",
"O. c #F1370A",
"+. c #F13E0A",
"@. c #E22210",
"#. c #E12D12",
"$. c #E43313",
"%. c #E63D14",
"&. c #C42320",
"*. c #DE4517",
"=. c #ED4507",
"-. c #ED420C",
";. c #EE4B0D",
":. c #F54205",
">. c #F84305",
",. c #F74B06",
"<. c #FA4B04",
"1. c #F1440A",
"2. c #F34C0B",
"3. c #F84E09",
"4. c #EF5A06",
"5. c #EC530B",
"6. c #F15706",
"7. c #FB5305",
"8. c #FD5A06",
"9. c #F3530B",
"0. c #FB5409",
"q. c #F45C0C",
"w. c #FA5D0A",
"e. c #E64414",
"r. c #EB4413",
"t. c #ED4C13",
"y. c #F04F13",
"u. c #EE5514",
"i. c #EE5E1A",
"p. c #F25411",
"a. c #F45A10",
"s. c #F95D11",
"d. c #ED650D",
"f. c #F36705",
"g. c #FD6305",
"h. c #FF6B06",
"j. c #F6630E",
"k. c #FB630C",
"l. c #F56A0E",
"z. c #FB6B0E",
"x. c #FC6D0C",
"c. c #FF7106",
"v. c #FF7A05",
"b. c #F4700D",
"n. c #FD750E",
"m. c #FF790B",
"M. c #FF780E",
"N. c #FE7C0D",
"B. c #EC641A",
"V. c #F36313",
"C. c #F96610",
"Z. c #F66C15",
"A. c #F96C12",
"S. c #F36F1C",
"D. c #F96F18",
"F. c #F47415",
"G. c #FC7412",
"H. c #F57C14",
"J. c #FC7C13",
"K. c #F1731F",
"L. c #F57C1A",
"P. c #F97C1A",
"I. c #EE7421",
"U. c #F57D21",
"Y. c #FF8006",
"T. c #FF830E",
"R. c #FF8B0E",
"E. c #F58313",
"W. c #FD8313",
"Q. c #FF8611",
"!. c #F68C16",
"~. c #FE8B14",
"^. c #FF8E16",
"/. c #F5821C",
"(. c #FB831C",
"). c #F68B1C",
"_. c #FD8C1B",
"`. c #FE9316",
"'. c #FF9B17",
"]. c #F7921B",
"[. c #FE941A",
"{. c #F69C19",
"}. c #FF991A",
"|. c #FF9B1B",
" X c #FFA31D",
".X c #FFAA1E",
"XX c #F78524",
"oX c #F78D21",
"OX c #F88C23",
"+X c #F99325",
"@X c #FD9B22",
"#X c #F99B26",
"$X c #F89129",
"%X c #FDA423",
"&X c #FFAC23",
"*X c #FEA629",
"=X c #FFAD2B",
"-X c #FFB224",
";X c #FFBA26",
":X c #FEB22D",
">X c #FFBB2C",
",X c #FFB631",
"<X c #FFBC32",
"1X c #FFC42D",
"2X c #FFC92E",
"3X c #FFC331",
"4X c #FFCC31",
"5X c #FEC138",
"6X c #FFD133",
/* pixels */
"6 3 3 3 3 6 4 w , J D x ) C. XP.t.| $.I #.| 1.A.Q.k.q.q.1.1.9.C.G.W.^.|.[.n.1.^ @.J < q 6 5   5 5 5 ",
"6 3 6 3 6 6 9 & g D P ^ 1.^.Z.[ B c x P #.| { s.M.) M / $.$.( ) +.Z.W.|.^.z.| m P J < q 5       5 3 ",
"7 3 3 3 3 8 % , g h c ) z.C.{ c j S S D #.( ) c.) n m T T J T #.M | x.^.^.n.1.m T K = 0 3   . . 5   ",
"7 3 6 4 9 w & S D c ( w.x.+.I O % r < T #.M g.1.m ^ J &.u y u L ^ Q 2.J.^.Q.7.m x K > 8 3     . .   ",
"3 3 0 9 9 & , S x @.p.J.q.) g @ 8 @ r T m X.m./ N T u e q r e y L M M 9.M.~.m. .s G 1 t 8 4 3 7 5   ",
"6 0 8 r & > , g Y r.J.G.1.D O 8 3 9 t P W n.+.M T u e 9 8 q q w u J c ) q.T.R.k.m a H , t 9 q 6 5 6 ",
"q w & > , + g I r.D.W.2.Z + @ 3 6 9 & f { W.Q f , w 4 6 6 6 0 9 e j J m / 2.Q.T.7.m s H 1 i w 9 # 0 ",
"t > > > , h f r.D.J.2./ a & 4 4 8 8 + m p.G.M P t 8 6 6 7 6 6 9 w y j h f n | J.c.X.M c G p i r 9 * ",
"& > , S d s t.P.W.p.^ f o 9 8 4 8 & h ^ D.0.m F r 3 5     3 4 8 0 9 e &.k z N s.M.w.O.m c H K < > & ",
", S h c m +.J.^.,.^ a h % 4 8 4 9 + h M J.s.W D = 6 7 7   5 8 8 0 8 9 y &.k N r.Q.~.G.2.) Q P H 1 > ",
"B ^ / ' w.[.^.,.^ a o O 9 4 6 6 9 j h m Z.G./ P G r 3 7 7 7 8 8 8 9 8 w y k z m _.:X,X@X_.s.| / B d ",
"3.0.8.@X=X&Xl.[ B h & 8 4 3 . 5 9 + x n y.W._ W G > 9 3 7 3 0 9 8 0 0 9 e &.T N J.=X=X*X@XJ.g.8.3.0.",
"h.N.|.,X<X[.q.[ B - % 6 3   . 6 4 O h c { W.3.~ I &.O 9 8 6 8 w 9 0 0 w y &.f ( G.|.`.z.8.,.,.,.8.w.",
"[ 1.J.%X=X[.u.[ I , % 0 3 . . 5 4 % j x ^ l.J.../ c j u e 9 9 w e e e y j x / ,.J.|.n.<.' ( C P ( [ ",
"B f ^ u._.|.a.[ f S & q 6 5 . 5 4 & g h f 5.!.z. .#.T k &.&.y u u u j h @.1.f.M.T.W.8.X.V - % w - D ",
"o h a s -.@X).| f x - & q 0 8 8 w > D x f 5.{.[.8.O.#.#.k T k k x Y e.i.F./.N.N.n.n.7.' D O 8 4 4 % ",
"& o h l m F.|.F.m s c D > > & > + h l ^ ] L.&X X!.q.| [ ( #.#.%.u.V.Z.F.F.k.9.=.' k.8.X.Z O 8 3 4 9 ",
"+ l a s ! q.%X%Xq.v v s l h j h c ) ' q.N.].:X,X&X`.w.,.2.a.F.J.J.j.5.} ( T x a ^ ,.z.:.Z S % 9 w & ",
"f @.#.-.l.T.=X:X@X9.( ^ ^ ^ ( ' ;.4.f.E.E.!.`.-X>X-X|.[.|.|.|.J.6.{ B h o O > g f :._.9.{ ( g + g P ",
"p.V.J.W.W.].@X:X<X@XJ.P.H.l.4.4.5.=.} { [ ' ,.R.&X3X1X;X-X&X|.j.} d - & 9 0 % o x { %X*XG.q.;.:.X.=.",
"2.y.2.y.;.;.j.|.,X@XW.W.H.f.1.{ / f c l l a n <.|.1X4X6X1X;X|.j.^ h & @ 6 3 @ > a 1.=X5X*X].G.j.9.1.",
"m ^ f f D B Z L.*XE.g.=.Q Z d x h , + + g g V  .N..X2X6X6X4X-XJ.[ B X % % @ o h f G.[.(.V.1.{ ^ m f ",
"a s h , < S G t.#X].6.^ a h o & w 9 w w & - D  .N..X2X2X2X1X;X&Xl.' V - o g d m | Q.G.{ Q V P h h c ",
"g - > q = 1 K A H.#XV.V d - % & 8 6 0 q & , P ' T..X.X X X|.|.|.'.m.2.' V V b ' A.G.1.$.U G K y > j ",
"S 9 0 0 # > - G t.)./.( P S & @ # 0 5 @ & S C =.R. X`.R.Y.M.n.n.~.'.^.n.9.3.k.T.n.7.r.E G K < & > H ",
"& % @ 4 @ * S D V S._.X.b C F @ 7 3 5 # & D Z ,.`.~.7.X. ...:.0.k.J.^.[.|.[.`.|.k.p.%.U K < & = e & ",
"@ @ @ @ 8 * - S f t.OXG.Q m D * 5 3 6 # = d ( w.`.9.W m f ^ ! ' 5.k.J.|.&X-X.X~.3.| U J i r q q 8 8 ",
"3 8 8 3 4 # & S f ^ S.[.,.m B > # 5 6 0 * S / l.!.[ P - , - S P -.q.W.%X-X-X.XJ.>.@.D - r 0 5 6 6 3 ",
"3 3 3   3 3 % X h s $.P.n.m f , * # 3 6 * D / /.L.B K * q = < D } l.^.&X-X X X~.<.^ x , r 0 5 7 7 3 ",
"5         3 @ O h a s i.Q.) m g * 6 5 6 * D [ +XS.P < q 6 0 t D ;.H.`. X X].^.`.g.) f D t 0 7 7   7 ",
"7 5     3 3 8 @ + h n %.P.9.b h ; 0 6 6 q o e.+Xi.D = q 0 q > R F.W.E.W.H.f.q.n.c.X.M P H q 6 3 7 7 ",
"3 3 3 3 8 8 8 @ & h a m Z.G.m f o * 0 0 % S B.oXu.P < * = , R F.].E.4.5.=.( ! ] c.3.^ m x , q 0 3 6 ",
"3 4 6 8 8 8 4 8 9 + g a y.W.O.n D & q * > U K.XX-.B S , F e.F.!.H.] Z ^ @.c s m =.g._ n f D & 9 0 3 ",
"4 3 6 8 8 8 8 4 8 w X l $.Q.0.Q d > & % - *.XXXX] B D E B.H.E.d.Z f f d x x x l f 7.8.n n m H & q 0 ",
"q 0 9 9 8 8 4 8 8 9 O h V n.M.~ f h S g U B.$X+XV.B.I./.!.b.=.m s c h + , g k h s ! g.X.n n @.G < * ",
"i t e 9 9 8 4 4 8 w + h m x.R...^ x h D E U.#X+XoXOX).F.2.! m f x + O w w > + h c s X.h.X.n m I G 1 ",
"G K < > & % 8 9 9 % O l m x.`.3.Q c x Y i.OX@X(.F.p.-./ m f d x + % 9 4 3 8 e > g c ^ 8.n.X.n N I U ",
"Y U T P o O X & + o h s m M.'.7./ V Y r.(.(.j.] ^ ^ V c x S + > & 8 3 7 . 5 8 w S h m ~ m.M.| n @.I ",
"m m I f x h h l l c f m ,.|.-X8.` ( %.G.J.2.[ Z U P P S - & w 9 8 4 7 . . 7 4 w > J I n 7.[.~.1.m m ",
"^ ) / m m m n m ^ / ) 3.~.-X-XN.o.p.P.J.-.( Y D J K 1 < q 0 6 3 7     .     4 w , D P n { W.&X%Xk.) ",
"n.g.7.>.>.>.o.+.<.7.z.`.&X>X>X&X_.OXW.1.Z C H < i $ q 0 3 7 7 . . . . . 5 4 8 & j h x f ) W.<X<X%X~.",
"N.c.c.x.h.h.z.h.h.x.c.N.|.-X3X<X%X`.3.Q P , t $ $ $ 4 7 7 7 . . . . . 7 4 8 & O j x f ) ,.@X<X:X^.Q.",
") / / ) ) ) ~ Q Q _ ) O.>.g.-X>X Xg.~ B S & 9 0 0 $ 4 4 7 . . . . . 3 8 w & + g h f m ) h.`.|.A.+.) ",
"P J P J h D D h P P c f ^ ( g.-X|.3.Q f S = # 0 6 0 4 3 7 7 7 3 7 8 9 % O g h x s z ) h.v.8.X.M Q c ",
"S , + > - K F D D F K H T ( X.'.|.8.m ^ B : 2 $ $ $ q 6 3 6 0 8 r e e + h a a n m :.v.g.>./ f B D K ",
"& > & & = = > , > < K K D P ~ ~.*Xc.` n f d F 2 $ $ q q q 9 9 y y j h l a f W ' g.v.<.W m d D K > & ",
"9 w w 9 q 6 0 q q = < K F P  .^.-X[.c.,.X.W d F ; % * % & > g J x c c n / [ 1.h.v.>.n f D D K % r w ",
"0 8 8 3 5 5 3 6 q r > K J V X.`.<X>X-X'.Y.h. .V h X o g h c c m ^ ^ / [ 2.w.c.h.X.n f B K < * q 8 0 ",
"4 3 6 3   5 3 6 q = H K P ) 8. X3X3X*XP.x.Q.T.8.| ( V V ( ( { | | ;.9.k.M.T.c.:.m m T G = 0 0 0 0 3 ",
"6 3 3 3 3 3 6 q = K D J ^ 1.^.%X].Z.p.1.-.1.A.Q.N.M.z.w.C.k.w.C.n.J.~.`.|.Q.0.( ^ T K t 0 7 5 5 4 3 "
};
